<svg width="50" height="50" viewBox="0 0 50 50" fill="none" xmlns="http://www.w3.org/2000/svg">
<g clip-path="url(#clip0_5_453)">
<path d="M45 0H5C2.23858 0 0 2.19468 0 4.90196V45.098C0 47.8053 2.23858 50 5 50H45C47.7614 50 50 47.8053 50 45.098V4.90196C50 2.19468 47.7614 0 45 0Z" fill="white"/>
<path d="M37.4019 34.7383C37.8751 34.7383 38.2588 34.3492 38.2588 33.8691C38.2588 33.3891 37.8751 33 37.4019 33C36.9286 33 36.5449 33.3891 36.5449 33.8691C36.5449 34.3492 36.9286 34.7383 37.4019 34.7383Z" fill="black"/>
<path fill-rule="evenodd" clip-rule="evenodd" d="M21.3864 35.873C20.011 35.873 18.5967 36.9909 18.5967 38.9476C18.5967 40.7364 19.8402 41.9998 21.3864 41.9998C22.6627 41.9998 23.2316 41.1309 23.2316 41.1309V41.5097C23.2316 41.6887 23.3984 41.8884 23.605 41.8884H24.5275V33.0658H23.2316V36.7531C23.2316 36.7531 22.658 35.873 21.3864 35.873ZM21.6173 37.0757C22.7495 37.0757 23.3434 38.0857 23.3434 38.9471C23.3434 39.9067 22.6383 40.8179 21.6197 40.8179C20.7682 40.8179 19.9152 40.1185 19.9152 38.9345C19.9152 37.8657 20.6492 37.0757 21.6173 37.0757Z" fill="black"/>
<path d="M12.3589 41.5096C12.3589 41.7435 12.5332 41.8884 12.7323 41.8884H13.6549V38.7693C13.6549 37.9486 14.1963 37.077 15.1056 37.077C15.9484 37.077 16.3128 37.8096 16.3128 38.4128V41.4873C16.3128 41.6879 16.472 41.8884 16.7081 41.8884H17.6087V38.1232C17.6087 37.0349 16.8423 35.8712 15.4029 35.8712C14.5223 35.8712 13.9485 36.2868 13.6549 36.7345V36.0066H12.3589V41.5096Z" fill="black"/>
<path fill-rule="evenodd" clip-rule="evenodd" d="M5 38.9476C5 36.9909 6.41429 35.873 7.78969 35.873C9.06124 35.873 9.63484 36.7531 9.63484 36.7531V36.0067H10.9308V41.8884H10.0083C9.80171 41.8884 9.63484 41.6887 9.63484 41.5097V41.1309C9.63484 41.1309 9.066 41.9998 7.78969 41.9998C6.24349 41.9998 5 40.7364 5 38.9476ZM9.74673 38.9471C9.74673 38.0857 9.1528 37.0757 8.02056 37.0757C7.05254 37.0757 6.31853 37.8657 6.31853 38.9345C6.31853 40.1185 7.17147 40.8179 8.02296 40.8179C9.04156 40.8179 9.74673 39.9067 9.74673 38.9471Z" fill="black"/>
<path d="M25.9556 41.5096C25.9556 41.7435 26.1299 41.8884 26.329 41.8884H27.2516V38.9243C27.2516 38.1036 27.7481 37.232 28.6574 37.232C28.9941 37.232 29.2724 37.3434 29.2724 37.3434V35.9844C29.2724 35.9844 29.0495 35.9398 28.8111 35.9398C27.956 35.9398 27.4746 36.4378 27.2516 36.9869V36.0066H25.9556V41.5096Z" fill="black"/>
<path d="M37.1361 41.8884C36.937 41.8884 36.7627 41.7435 36.7627 41.5096V36.0066H38.0587V41.8884H37.1361Z" fill="black"/>
<path fill-rule="evenodd" clip-rule="evenodd" d="M39.0693 38.9476C39.0693 36.9909 40.4836 35.873 41.859 35.873C43.1305 35.873 43.7041 36.7531 43.7041 36.7531V33.0658H45.0001V41.8884H44.0775C43.871 41.8884 43.7041 41.6887 43.7041 41.5097V41.1309C43.7041 41.1309 43.1353 41.9998 41.859 41.9998C40.3128 41.9998 39.0693 40.7364 39.0693 38.9476ZM43.816 38.9471C43.816 38.0857 43.2221 37.0757 42.0898 37.0757C41.1218 37.0757 40.3878 37.8657 40.3878 38.9345C40.3878 40.1185 41.2407 40.8179 42.0922 40.8179C43.1108 40.8179 43.816 39.9067 43.816 38.9471Z" fill="black"/>
<path fill-rule="evenodd" clip-rule="evenodd" d="M29.6675 38.9371C29.6675 36.9616 31.25 35.871 32.6904 35.871C34.4582 35.871 35.7537 37.2654 35.7537 38.9485C35.7537 40.32 34.7477 42 32.6873 42C31.0154 42 29.6675 40.7373 29.6675 38.9371ZM34.4342 38.9408C34.4342 37.9128 33.6912 37.0986 32.6951 37.0986C31.7768 37.0986 30.9637 37.8306 30.9637 38.9584C30.9637 40.0676 31.8186 40.7935 32.6981 40.7935C33.6455 40.7935 34.4342 39.9866 34.4342 38.9408Z" fill="black"/>
<path d="M34.7583 13.6287L38.0764 7.99103C38.2636 7.67498 38.1504 7.2735 37.8325 7.08985C37.5147 6.9062 37.101 7.01297 36.9181 7.32903L33.5565 13.0393C30.9917 11.8904 28.1047 11.2498 25 11.2498C21.8953 11.2498 19.0083 11.8904 16.4435 13.0393L13.0819 7.32903C12.8946 7.01297 12.4853 6.9062 12.1631 7.08985C11.8408 7.2735 11.732 7.67498 11.9192 7.99103L15.2373 13.6287C9.51555 16.6697 5.64009 22.3501 5 29H45C44.3599 22.3501 40.4844 16.6696 34.7584 13.6287H34.7583ZM15.8164 23.4905C14.8889 23.4905 14.14 22.7516 14.14 21.8461C14.14 20.9364 14.8933 20.2018 15.8164 20.2018C16.7439 20.2018 17.4929 20.9407 17.4929 21.8461C17.4973 22.7516 16.7439 23.4905 15.8164 23.4905ZM34.1792 23.4905C33.2517 23.4905 32.5027 22.7516 32.5027 21.8461C32.5027 20.9364 33.2561 20.2018 34.1792 20.2018C35.1067 20.2018 35.8557 20.9407 35.8557 21.8461C35.86 22.7516 35.1067 23.4905 34.1792 23.4905Z" fill="#32DE84"/>
</g>
<defs>
<clipPath id="clip0_5_453">
<rect width="50" height="50" fill="white"/>
</clipPath>
</defs>
</svg>
