<svg width="50" height="50" viewBox="0 0 50 50" fill="none" xmlns="http://www.w3.org/2000/svg">
<g clip-path="url(#clip0_5_478)">
<path d="M45 0H5C2.23858 0 0 2.23858 0 5V45C0 47.7614 2.23858 50 5 50H45C47.7614 50 50 47.7614 50 45V5C50 2.23858 47.7614 0 45 0Z" fill="#3A3A3A"/>
<path d="M9.8561 35.2939C9.61788 35.2939 9.41561 35.3762 9.24931 35.543C9.0822 35.709 9 35.9098 9 36.1471C9 36.3781 9.0822 36.5781 9.24931 36.7467C9.41561 36.9153 9.61788 37 9.8561 37C10.1005 37 10.3082 36.9153 10.4794 36.7467C10.6508 36.5781 10.7365 36.3781 10.7365 36.1471C10.7365 35.9156 10.6508 35.715 10.4794 35.5464C10.3082 35.377 10.1005 35.2939 9.8561 35.2939ZM31.2535 27.1474H34.4756V36.8262H35.7838V27.1474H39V26H31.2535V27.1474ZM25.4149 31.8959H29.4477V30.7486H25.4149V27.1474H29.7679V26H24.1072V36.8262H30.0245V35.6788H25.4149V31.8959ZM20.3343 33.6251C20.3343 34.3744 20.361 34.9059 20.413 35.2166H20.3824C20.3045 35.0716 20.1526 34.8301 19.9298 34.4927L14.34 26H12.6415V36.8262H13.95V29.0042C13.95 28.2446 13.9295 27.7486 13.8884 27.5176H13.9354C14.0336 27.764 14.1499 27.99 14.2851 28.1972L20.0468 36.8262H21.6344V26H20.3343V33.6251Z" fill="white"/>
<path d="M19.0704 20.6471H15.1349L14.3867 22.8529H12L16.0552 12.1471H18.1352L22.2128 22.8529H19.8261L19.0704 20.6471ZM15.741 18.8603H18.4644L17.0952 14.8529L15.741 18.8603Z" fill="white"/>
<path d="M28.8792 20.0441C28.8792 19.6275 28.7295 19.3088 28.4302 19.0882C28.131 18.8627 27.5923 18.6275 26.8141 18.3824C26.036 18.1324 25.42 17.8873 24.9661 17.6471C23.7291 16.9902 23.1106 16.1054 23.1106 14.9926C23.1106 14.4142 23.2752 13.8995 23.6044 13.4485C23.9386 12.9926 24.4149 12.6373 25.0334 12.3824C25.6569 12.1275 26.3552 12 27.1284 12C27.9065 12 28.5998 12.1397 29.2084 12.4191C29.8169 12.6936 30.2883 13.0833 30.6224 13.5882C30.9616 14.0931 31.1312 14.6667 31.1312 15.3088H28.8866C28.8866 14.8186 28.7295 14.4387 28.4153 14.1691C28.101 13.8946 27.6596 13.7574 27.091 13.7574C26.5423 13.7574 26.1158 13.8725 25.8116 14.1029C25.5073 14.3284 25.3552 14.6275 25.3552 15C25.3552 15.348 25.5322 15.6397 25.8864 15.875C26.2455 16.1103 26.7717 16.3309 27.4651 16.5368C28.742 16.9142 29.6722 17.3824 30.2558 17.9412C30.8394 18.5 31.1312 19.1961 31.1312 20.0294C31.1312 20.9559 30.7746 21.6838 30.0613 22.2132C29.348 22.7377 28.3878 23 27.1808 23C26.3428 23 25.5796 22.8505 24.8913 22.5515C24.2029 22.2475 23.6767 21.8333 23.3126 21.3088C22.9535 20.7843 22.7739 20.1765 22.7739 19.4853H25.026C25.026 20.6667 25.7442 21.2574 27.1808 21.2574C27.7145 21.2574 28.131 21.152 28.4302 20.9412C28.7295 20.7255 28.8792 20.4265 28.8792 20.0441Z" fill="white"/>
<path d="M34.9023 19.0809V22.8529H32.6577V12.1471H36.9075C37.7255 12.1471 38.4438 12.2941 39.0623 12.5882C39.6858 12.8824 40.1646 13.3015 40.4988 13.8456C40.833 14.3848 41.0001 15 41.0001 15.6912C41.0001 16.7402 40.6335 17.5686 39.9003 18.1765C39.172 18.7794 38.1619 19.0809 36.8701 19.0809H34.9023ZM34.9023 17.2941H36.9075C37.501 17.2941 37.9525 17.1569 38.2617 16.8824C38.5759 16.6078 38.7331 16.2157 38.7331 15.7059C38.7331 15.1814 38.5759 14.7574 38.2617 14.4338C37.9475 14.1103 37.5135 13.9436 36.9599 13.9338H34.9023V17.2941Z" fill="white"/>
</g>
<defs>
<clipPath id="clip0_5_478">
<rect width="50" height="50" fill="white"/>
</clipPath>
</defs>
</svg>
