<svg width="50" height="50" viewBox="0 0 50 50" fill="none" xmlns="http://www.w3.org/2000/svg">
<g clip-path="url(#clip0_5_484)">
<path d="M45 0H5C2.23858 0 0 2.23858 0 5V45C0 47.7614 2.23858 50 5 50H45C47.7614 50 50 47.7614 50 45V5C50 2.23858 47.7614 0 45 0Z" fill="#252F3E"/>
<path d="M18.018 22.2636C18.018 22.6752 18.0606 23.0089 18.1351 23.2536C18.2202 23.4983 18.3267 23.7653 18.4757 24.0545C18.5289 24.1435 18.5502 24.2325 18.5502 24.3103C18.5502 24.4216 18.4863 24.5328 18.3479 24.644L17.6774 25.1112C17.5817 25.178 17.4859 25.2113 17.4007 25.2113C17.2943 25.2113 17.1879 25.1557 17.0814 25.0556C16.9324 24.8887 16.8047 24.7108 16.6983 24.5328C16.5919 24.3437 16.4854 24.1324 16.3684 23.8765C15.5382 24.8999 14.4952 25.4116 13.2394 25.4116C12.3454 25.4116 11.6323 25.1446 11.1108 24.6107C10.5893 24.0767 10.3232 23.3648 10.3232 22.475C10.3232 21.5295 10.6425 20.7619 11.2917 20.1835C11.9409 19.6051 12.803 19.3159 13.8992 19.3159C14.2611 19.3159 14.6336 19.3493 15.0274 19.4049C15.4212 19.4605 15.8256 19.5495 16.2513 19.6496V18.8376C16.2513 17.9922 16.081 17.4027 15.7511 17.0578C15.4105 16.713 14.8358 16.5462 14.0163 16.5462C13.6438 16.5462 13.2607 16.5907 12.8669 16.6908C12.4731 16.7909 12.0899 16.9132 11.7174 17.069C11.5471 17.1468 11.4194 17.1913 11.3449 17.2136C11.2704 17.2358 11.2172 17.2469 11.1746 17.2469C11.0256 17.2469 10.9511 17.1357 10.9511 16.9021V16.3571C10.9511 16.1791 10.9724 16.0456 11.0256 15.9677C11.0789 15.8899 11.1746 15.812 11.3236 15.7341C11.6961 15.5339 12.1431 15.3671 12.6646 15.2336C13.1861 15.089 13.7396 15.0222 14.3249 15.0222C15.5914 15.0222 16.5174 15.3226 17.1134 15.9232C17.6987 16.5239 17.9967 17.436 17.9967 18.6596V22.2636H18.018ZM13.697 23.9544C14.0482 23.9544 14.4101 23.8876 14.7932 23.7542C15.1764 23.6207 15.5169 23.376 15.8043 23.0423C15.9746 22.8309 16.1023 22.5973 16.1662 22.3304C16.23 22.0634 16.2726 21.7408 16.2726 21.3626V20.8954C15.9639 20.8176 15.634 20.7508 15.2934 20.7063C14.9529 20.6618 14.6229 20.6396 14.293 20.6396C13.5799 20.6396 13.0584 20.7842 12.7072 21.0845C12.356 21.3849 12.1857 21.8076 12.1857 22.3637C12.1857 22.8865 12.3134 23.2758 12.5795 23.5428C12.8349 23.8209 13.2074 23.9544 13.697 23.9544ZM22.2432 25.1557C22.0517 25.1557 21.9239 25.1223 21.8388 25.0445C21.7537 24.9777 21.6792 24.822 21.6153 24.6107L19.1142 16.0122C19.0504 15.7898 19.0184 15.6452 19.0184 15.5673C19.0184 15.3893 19.1036 15.2892 19.2739 15.2892H20.3169C20.5191 15.2892 20.6574 15.3226 20.7319 15.4004C20.8171 15.4672 20.8809 15.6229 20.9448 15.8343L22.7328 23.198L24.3931 15.8343C24.4463 15.6118 24.5102 15.4672 24.5953 15.4004C24.6804 15.3337 24.8294 15.2892 25.021 15.2892H25.8724C26.0747 15.2892 26.213 15.3226 26.2982 15.4004C26.3833 15.4672 26.4578 15.6229 26.5004 15.8343L28.1819 23.287L30.0232 15.8343C30.087 15.6118 30.1615 15.4672 30.236 15.4004C30.3212 15.3337 30.4595 15.2892 30.6511 15.2892H31.6409C31.8112 15.2892 31.9069 15.3782 31.9069 15.5673C31.9069 15.6229 31.8963 15.6785 31.8857 15.7453C31.875 15.812 31.8537 15.901 31.8112 16.0234L29.2462 24.6218C29.1824 24.8443 29.1079 24.9889 29.0227 25.0556C28.9376 25.1223 28.7992 25.1668 28.6183 25.1668H27.703C27.5008 25.1668 27.3624 25.1335 27.2773 25.0556C27.1922 24.9777 27.1177 24.8331 27.0751 24.6107L25.4254 17.436L23.7864 24.5995C23.7332 24.822 23.6694 24.9666 23.5842 25.0445C23.4991 25.1223 23.3501 25.1557 23.1585 25.1557H22.2432ZM35.9193 25.456C35.3659 25.456 34.8124 25.3893 34.2803 25.2558C33.7482 25.1223 33.3331 24.9777 33.0564 24.8109C32.8861 24.7108 32.769 24.5995 32.7264 24.4994C32.6839 24.3993 32.6626 24.2881 32.6626 24.188V23.6207C32.6626 23.3871 32.7477 23.2758 32.9074 23.2758C32.9712 23.2758 33.0351 23.287 33.0989 23.3092C33.1628 23.3315 33.2586 23.376 33.365 23.4205C33.7269 23.5873 34.1207 23.7208 34.5357 23.8098C34.9614 23.8988 35.3765 23.9433 35.8022 23.9433C36.4727 23.9433 36.9942 23.8209 37.3561 23.5762C37.7179 23.3315 37.9095 22.9755 37.9095 22.5195C37.9095 22.208 37.8137 21.9522 37.6222 21.7408C37.4306 21.5295 37.0687 21.3404 36.5472 21.1624L35.004 20.6618C34.2271 20.406 33.6524 20.0278 33.3012 19.5272C32.9499 19.0378 32.769 18.4928 32.769 17.9143C32.769 17.4472 32.8648 17.0356 33.0564 16.6796C33.2479 16.3237 33.5034 16.0122 33.8227 15.7675C34.1419 15.5117 34.5038 15.3226 34.9295 15.1891C35.3552 15.0556 35.8022 15 36.2705 15C36.5047 15 36.7494 15.0111 36.9836 15.0445C37.2284 15.0779 37.4519 15.1224 37.6754 15.1669C37.8882 15.2225 38.0904 15.2781 38.282 15.3448C38.4736 15.4116 38.6226 15.4783 38.729 15.545C38.878 15.634 38.9844 15.723 39.0483 15.8231C39.1122 15.9121 39.1441 16.0345 39.1441 16.1902V16.713C39.1441 16.9466 39.0589 17.069 38.8993 17.069C38.8142 17.069 38.6758 17.0245 38.4949 16.9355C37.8882 16.6463 37.2071 16.5017 36.4514 16.5017C35.8448 16.5017 35.3659 16.6018 35.0359 16.8131C34.706 17.0245 34.5357 17.347 34.5357 17.8031C34.5357 18.1146 34.6422 18.3815 34.855 18.5929C35.0679 18.8042 35.4617 19.0156 36.0257 19.2047L37.537 19.7052C38.3033 19.9611 38.8567 20.317 39.1867 20.7731C39.5166 21.2291 39.6762 21.7519 39.6762 22.3304C39.6762 22.8087 39.5804 23.2425 39.3995 23.6207C39.2079 23.9989 38.9525 24.3326 38.6226 24.5995C38.2927 24.8776 37.8989 25.0778 37.4412 25.2225C36.9623 25.3782 36.4621 25.456 35.9193 25.456Z" fill="white"/>
<path fill-rule="evenodd" clip-rule="evenodd" d="M37.9307 30.8622C34.4292 33.5652 29.3419 35.0001 24.9677 35.0001C18.8374 35.0001 13.3138 32.6308 9.14176 28.6931C8.81184 28.3817 9.10984 27.959 9.50362 28.2037C14.0162 30.9401 19.5824 32.5975 25.3402 32.5975C29.2248 32.5975 33.4926 31.7521 37.4199 30.0168C38.0052 29.7387 38.5054 30.4173 37.9307 30.8622Z" fill="#FF9900"/>
<path fill-rule="evenodd" clip-rule="evenodd" d="M39.3887 29.127C38.9417 28.5263 36.43 28.8378 35.2912 28.9824C34.9506 29.0269 34.8974 28.7154 35.206 28.4818C37.2069 27.0136 40.4955 27.4362 40.8787 27.9257C41.2618 28.4262 40.7723 31.8634 38.8991 33.5096C38.6118 33.7655 38.335 33.632 38.4628 33.2983C38.8885 32.1971 39.8357 29.7165 39.3887 29.127Z" fill="#FF9900"/>
</g>
<defs>
<clipPath id="clip0_5_484">
<rect width="50" height="50" fill="white"/>
</clipPath>
</defs>
</svg>
