<svg width="50" height="50" viewBox="0 0 50 50" fill="none" xmlns="http://www.w3.org/2000/svg">
<g clip-path="url(#clip0_5_509)">
<path d="M45 0H5C2.23858 0 0 2.23858 0 5V45C0 47.7614 2.23858 50 5 50H45C47.7614 50 50 47.7614 50 45V5C50 2.23858 47.7614 0 45 0Z" fill="#343434"/>
<path d="M20.8998 25C20.8998 22.9011 22.6262 21.1977 24.7534 21.1977C26.8805 21.1977 28.6069 22.9011 28.6069 25C28.6069 27.0989 26.8805 28.8023 24.7534 28.8023C22.6262 28.8327 20.8998 27.0989 20.8998 25ZM24.7534 9C17.1696 9 10.8189 14.1103 9.03083 21.0456C9.03083 21.1065 9 21.1369 9 21.1977C9 21.6236 9.33911 21.9582 9.77071 21.9582H16.3064C16.6146 21.9582 16.8921 21.7757 17.0154 21.5019C18.3719 18.6122 21.3006 16.6046 24.7534 16.6046C29.4393 16.6046 33.262 20.3764 33.262 25C33.262 29.6236 29.4393 33.3954 24.7534 33.3954C21.3314 33.3954 18.3719 31.3878 17.0154 28.4981C16.8921 28.2243 16.6146 28.0418 16.3064 28.0418H9.77071C9.33911 28.0418 9 28.3764 9 28.8023C9 28.8631 9 28.8935 9.03083 28.9544C10.8189 35.8897 17.1696 41 24.7534 41C33.7245 41 41 33.8213 41 24.9696C41 16.1483 33.7245 9 24.7534 9Z" fill="white"/>
</g>
<defs>
<clipPath id="clip0_5_509">
<rect width="50" height="50" fill="white"/>
</clipPath>
</defs>
</svg>
