<svg width="50" height="50" viewBox="0 0 50 50" fill="none" xmlns="http://www.w3.org/2000/svg">
<g clip-path="url(#clip0_5_519)">
<path d="M45 0H5C2.23858 0 0 2.23858 0 5V45C0 47.7614 2.23858 50 5 50H45C47.7614 50 50 47.7614 50 45V5C50 2.23858 47.7614 0 45 0Z" fill="#F48120"/>
<path d="M31.9204 31.9083C32.1546 31.1284 32.0766 30.3486 31.6862 29.8807C31.2958 29.4128 30.7493 29.1009 30.0467 29.0229L16.4619 28.867C16.3838 28.867 16.3057 28.789 16.2276 28.789C16.1496 28.711 16.1496 28.633 16.2276 28.555C16.3057 28.3991 16.3838 28.3211 16.5399 28.3211L30.2028 28.1651C31.8424 28.0872 33.56 26.7615 34.1846 25.2018L34.9653 23.1743C34.9653 23.0963 35.0434 23.0183 34.9653 22.9404C34.1065 18.9633 30.5151 16 26.2991 16C22.3955 16 19.0383 18.4954 17.8672 22.0046C17.0864 21.4587 16.1496 21.1468 15.0565 21.2248C13.1828 21.3807 11.6994 22.9404 11.4652 24.8119C11.3871 25.2798 11.4652 25.7477 11.5432 26.2156C8.49835 26.2936 6 28.789 6 31.9083C6 32.2202 6 32.4541 6.07807 32.7661C6.07807 32.922 6.23422 33 6.31229 33H31.3739C31.5301 33 31.6862 32.922 31.6862 32.7661L31.9204 31.9083Z" fill="white"/>
<path d="M36.6092 23H36.2202C36.1424 23 36.0646 23.0806 35.9868 23.1613L35.4422 25.0968C35.2089 25.9032 35.2867 26.7097 35.6756 27.1935C36.0646 27.6774 36.6092 28 37.3094 28.0806L40.1879 28.2419C40.2657 28.2419 40.3435 28.3226 40.4213 28.3226C40.4991 28.4032 40.4991 28.4839 40.4213 28.5645C40.3435 28.7258 40.2657 28.8065 40.1101 28.8065L37.1538 28.9677C35.5201 29.0484 33.8085 30.4194 33.1861 32.0323L33.0305 32.7581C32.9527 32.8387 33.0305 33 33.1861 33H43.4554C43.611 33 43.6888 32.9194 43.6888 32.7581C43.8444 32.1129 44 31.3871 44 30.6613C44 26.4677 40.6547 23 36.6092 23Z" fill="white"/>
</g>
<defs>
<clipPath id="clip0_5_519">
<rect width="50" height="50" fill="white"/>
</clipPath>
</defs>
</svg>
