<svg width="50" height="50" viewBox="0 0 50 50" fill="none" xmlns="http://www.w3.org/2000/svg">
<g clip-path="url(#clip0_5_556)">
<path d="M45 0H5C2.23858 0 0 2.23858 0 5V45C0 47.7614 2.23858 50 5 50H45C47.7614 50 50 47.7614 50 45V5C50 2.23858 47.7614 0 45 0Z" fill="#1C2834"/>
<path d="M25.9477 9.00002C25.5706 9.00002 25.1926 9.14691 24.9009 9.43136C24.8965 9.4357 24.8909 9.43773 24.8865 9.44214L15.0835 15.1036L24.8613 24.8739V24.8811L36.6139 36.6248L38.8551 32.5916L30.7755 13.2093L27.0054 9.44214C26.7121 9.149 26.3307 9 25.9478 9L25.9477 9.00002Z" fill="#66C3FA"/>
<path d="M15.1071 15.081L9.44339 24.8678C9.43897 24.8723 9.43702 24.8778 9.4326 24.8822C9.14787 25.1736 9.00006 25.5547 9 25.9315C8.99993 26.3141 9.14824 26.6919 9.44156 26.9851L14.1357 31.6803L32.494 38.8963L36.6438 36.5922L36.5324 36.4807L36.5036 36.4844L24.9948 24.9644L24.9804 24.9643L15.107 15.0812L15.1071 15.081Z" fill="#215896"/>
<path d="M15.0815 15.0856L25.0842 25.0911H25.0986L36.6114 36.6072L40.9934 35.772L41 22.8169L36.3726 18.2853C35.3593 17.2926 33.8017 16.6529 32.2367 16.4427L32.2404 16.3924L15.0822 15.0858L15.0815 15.0856Z" fill="#235997"/>
<path d="M15.0947 15.0972L25.1027 25.0975V25.1119L36.6214 36.6218L35.7832 41H22.8183L18.2856 36.3737C17.2927 35.3605 16.6534 33.8037 16.4438 32.2398L16.3934 32.2435L15.0948 15.0969L15.0947 15.0972Z" fill="#58B6F0"/>
</g>
<defs>
<clipPath id="clip0_5_556">
<rect width="50" height="50" fill="white"/>
</clipPath>
</defs>
</svg>
