<svg width="50" height="50" viewBox="0 0 50 50" fill="none" xmlns="http://www.w3.org/2000/svg">
<g clip-path="url(#clip0_106_197)">
<path d="M45 0H5C2.23858 0 0 2.23858 0 5V45C0 47.7614 2.23858 50 5 50H45C47.7614 50 50 47.7614 50 45V5C50 2.23858 47.7614 0 45 0Z" fill="#5865F2"/>
<path d="M7.36719 6.616H42.8302V41.816H7.36719V6.616Z" fill="#5865F2"/>
<path d="M37.4954 13.285C35.1302 12.2022 32.6332 11.434 30.0684 11C29.7174 11.6274 29.3998 12.273 29.117 12.9339C26.3849 12.5222 23.6065 12.5222 20.8744 12.9339C20.5914 12.273 20.2739 11.6275 19.923 11C17.3565 11.4376 14.8579 12.2077 12.4903 13.2907C7.78997 20.2449 6.51578 27.0264 7.15287 33.7116C9.9055 35.7454 12.9865 37.2921 16.2619 38.2845C16.9994 37.2926 17.652 36.2402 18.2128 35.1387C17.1477 34.7409 16.1196 34.2501 15.1406 33.672C15.3983 33.4851 15.6503 33.2925 15.8938 33.1057C18.7426 34.4454 21.8519 35.14 24.9999 35.14C28.148 35.14 31.2573 34.4454 34.1061 33.1057C34.3524 33.3067 34.6044 33.4992 34.8593 33.672C33.8783 34.251 32.8484 34.7428 31.7814 35.1415C32.3415 36.2426 32.9942 37.294 33.7323 38.2845C37.0105 37.2961 40.0939 35.7501 42.847 33.7144C43.5945 25.9617 41.57 19.2426 37.4954 13.285ZM19.0198 29.6002C17.2444 29.6002 15.7777 27.9891 15.7777 26.007C15.7777 24.025 17.1934 22.3997 19.0141 22.3997C20.8348 22.3997 22.2902 24.025 22.259 26.007C22.2279 27.9891 20.8291 29.6002 19.0198 29.6002ZM30.9801 29.6002C29.2019 29.6002 27.7408 27.9891 27.7408 26.007C27.7408 24.025 29.1566 22.3997 30.9801 22.3997C32.8036 22.3997 34.2477 24.025 34.2165 26.007C34.1854 27.9891 32.7894 29.6002 30.9801 29.6002Z" fill="white"/>
</g>
<defs>
<clipPath id="clip0_106_197">
<rect width="50" height="50" fill="white"/>
</clipPath>
</defs>
</svg>
