<svg width="50" height="50" viewBox="0 0 50 50" fill="none" xmlns="http://www.w3.org/2000/svg">
<g clip-path="url(#clip0_5_619)">
<path d="M45 0H5C2.23858 0 0 2.23858 0 5V45C0 47.7614 2.23858 50 5 50H45C47.7614 50 50 47.7614 50 45V5C50 2.23858 47.7614 0 45 0Z" fill="#323FCB"/>
<path d="M13.8 20.907L11 9L28.4 21.8372L31.4 18.3023L39 16.814L35 22.5814V30.5814L14.4 41L20.2 32.4419L25 29.6512L19.8 30.9535L15 23.3256L24.6 25.8372L13.8 20.907Z" fill="white"/>
</g>
<defs>
<clipPath id="clip0_5_619">
<rect width="50" height="50" fill="white"/>
</clipPath>
</defs>
</svg>
