<svg width="50" height="50" viewBox="0 0 50 50" fill="none" xmlns="http://www.w3.org/2000/svg">
<g clip-path="url(#clip0_5_651)">
<path d="M45 0H5C2.23858 0 0 2.23858 0 5V45C0 47.7614 2.23858 50 5 50H45C47.7614 50 50 47.7614 50 45V5C50 2.23858 47.7614 0 45 0Z" fill="#00ACC1"/>
<path d="M7.16969 21.8446C7.08789 21.8446 7.06744 21.8029 7.10834 21.7404L7.53777 21.1774C7.57867 21.1148 7.68092 21.0731 7.76271 21.0731H15.0631C15.1449 21.0731 15.1653 21.1357 15.1244 21.1982L14.7768 21.7404C14.7359 21.8029 14.6336 21.8655 14.5723 21.8655L7.16969 21.8446Z" fill="white"/>
<path d="M4.0818 23.7629C4 23.7629 3.97955 23.7212 4.02045 23.6587L4.44988 23.0957C4.49078 23.0332 4.59302 22.9915 4.67482 22.9915H13.9996C14.0814 22.9915 14.1223 23.054 14.1019 23.1166L13.9383 23.617C13.9178 23.7004 13.836 23.7421 13.7542 23.7421L4.0818 23.7629Z" fill="white"/>
<path d="M9.03053 25.6813C8.94873 25.6813 8.92829 25.6187 8.96918 25.5562L9.25547 25.0349C9.29637 24.9723 9.37817 24.9098 9.45996 24.9098H13.5497C13.6315 24.9098 13.6724 24.9723 13.6724 25.0557L13.6315 25.5562C13.6315 25.6396 13.5497 25.7021 13.4884 25.7021L9.03053 25.6813Z" fill="white"/>
<path d="M30.2568 21.4693C28.9685 21.8029 28.0892 22.0531 26.8213 22.3868C26.5146 22.4702 26.4941 22.491 26.2283 22.1782C25.9216 21.8238 25.6966 21.5944 25.2672 21.3859C23.9789 20.7395 22.7315 20.9272 21.5659 21.6987C20.1754 22.6161 19.4596 23.9714 19.4801 25.6604C19.5005 27.3285 20.6252 28.7047 22.2407 28.934C23.6313 29.1217 24.7969 28.6213 25.7171 27.5578C25.9011 27.3285 26.0647 27.0783 26.2692 26.7864H22.3225C21.8931 26.7864 21.7908 26.5153 21.934 26.1608C22.1998 25.5144 22.6906 24.4302 22.9769 23.888C23.0382 23.7629 23.1814 23.5544 23.4881 23.5544H30.9316C30.8907 24.1174 30.8907 24.6804 30.8089 25.2434C30.584 26.7446 30.0318 28.1208 29.1321 29.3302C27.6597 31.3111 25.7375 32.5413 23.3041 32.8749C21.3001 33.146 19.4392 32.7498 17.8033 31.4987C16.29 30.331 15.4312 28.7881 15.2062 26.8698C14.9404 24.597 15.5948 22.5536 16.9444 20.7604C18.3963 18.8212 20.3185 17.591 22.6702 17.1531C24.5924 16.7986 26.4328 17.028 28.0892 18.1748C29.173 18.9046 29.95 19.9055 30.4613 21.1148C30.584 21.3025 30.5022 21.4068 30.2568 21.4693Z" fill="white"/>
<path d="M37.0252 32.9998C35.1644 32.9581 33.4671 32.416 32.0356 31.1649C30.8292 30.1015 30.0725 28.7462 29.8271 27.1406C29.4591 24.7844 30.093 22.6993 31.4835 20.8436C32.9763 18.8419 34.7758 17.7993 37.2093 17.3614C39.2951 16.9861 41.2582 17.1946 43.0373 18.4248C44.6528 19.5508 45.6548 21.0729 45.9206 23.0746C46.2682 25.8895 45.4707 28.1832 43.569 30.1432C42.2193 31.5402 40.5629 32.416 38.6612 32.8121C38.109 32.9164 37.5569 32.9372 37.0252 32.9998ZM41.8921 24.5759C41.8717 24.3049 41.8717 24.0963 41.8308 23.8878C41.4627 21.8236 39.6018 20.6559 37.6592 21.1146C35.7574 21.5525 34.5304 22.7827 34.0806 24.7427C33.7125 26.3691 34.4895 28.0164 35.9619 28.6836C37.0866 29.184 38.2113 29.1215 39.2951 28.5585C40.9106 27.7036 41.7899 26.3691 41.8921 24.5759Z" fill="white"/>
</g>
<defs>
<clipPath id="clip0_5_651">
<rect width="50" height="50" fill="white"/>
</clipPath>
</defs>
</svg>
