<svg width="50" height="50" viewBox="0 0 50 50" fill="none" xmlns="http://www.w3.org/2000/svg">
<g clip-path="url(#clip0_5_661)">
<path d="M45 0H5C2.23858 0 0 2.23858 0 5V45C0 47.7614 2.23858 50 5 50H45C47.7614 50 50 47.7614 50 45V5C50 2.23858 47.7614 0 45 0Z" fill="#E535AB"/>
<path d="M12.394 32.7114L13.5489 33.3896L26.4153 10.7233L25.2604 10.0451L12.394 32.7114Z" fill="white"/>
<path d="M37.8622 30.8994H12.1294V32.2559H37.8622V30.8994Z" fill="white"/>
<path d="M12.6387 31.6615L25.5099 39.2202L26.1767 38.0455L13.3055 30.4868L12.6387 31.6615Z" fill="white"/>
<path d="M23.8198 11.9618L36.691 19.5205L37.3578 18.3458L24.4866 10.7871L23.8198 11.9618Z" fill="white"/>
<path d="M12.6421 18.3414L13.3089 19.5161L26.1802 11.9574L25.5133 10.7827L12.6421 18.3414Z" fill="white"/>
<path d="M23.5874 10.7233L36.4538 33.3896L37.6087 32.7114L24.7423 10.0451L23.5874 10.7233Z" fill="white"/>
<path d="M14.4835 17.4409H13.1499V32.5584H14.4835V17.4409Z" fill="white"/>
<path d="M36.8503 17.4409H35.5166V32.5584H36.8503V17.4409Z" fill="white"/>
<path d="M24.7007 37.6199L25.2831 38.646L36.4776 32.072L35.8952 31.0458L24.7007 37.6199Z" fill="white"/>
<path d="M38.6178 32.9998C37.8465 34.3645 36.1272 34.8303 34.7856 34.0458C33.4439 33.2613 32.986 31.5126 33.7572 30.148C34.5285 28.7833 36.2477 28.3175 37.5894 29.102C38.9391 29.8946 39.3971 31.6352 38.6178 32.9998Z" fill="white"/>
<path d="M16.2349 19.8519C15.4637 21.2165 13.7444 21.6823 12.4027 20.8979C11.0611 20.1134 10.6031 18.3647 11.3744 17C12.1456 15.6354 13.8649 15.1696 15.2066 15.954C16.5483 16.7467 17.0062 18.4872 16.2349 19.8519Z" fill="white"/>
<path d="M11.3827 32.9998C10.6114 31.6352 11.0693 29.8946 12.411 29.102C13.7527 28.3175 15.4639 28.7833 16.2432 30.148C17.0145 31.5126 16.5565 33.2532 15.2149 34.0458C13.8652 34.8303 12.1539 34.3645 11.3827 32.9998Z" fill="white"/>
<path d="M33.765 19.8519C32.9937 18.4872 33.4516 16.7467 34.7933 15.954C36.135 15.1696 37.8462 15.6354 38.6255 17C39.3968 18.3647 38.9389 20.1052 37.5973 20.8979C36.2556 21.6823 34.5362 21.2165 33.765 19.8519Z" fill="white"/>
<path d="M25.0002 41.0002C23.4496 41.0002 22.1963 39.7254 22.1963 38.1483C22.1963 36.5712 23.4496 35.2964 25.0002 35.2964C26.5507 35.2964 27.804 36.5712 27.804 38.1483C27.804 39.7172 26.5507 41.0002 25.0002 41.0002Z" fill="white"/>
<path d="M25.0002 14.7038C23.4496 14.7038 22.1963 13.429 22.1963 11.8519C22.1963 10.2748 23.4496 9 25.0002 9C26.5507 9 27.804 10.2748 27.804 11.8519C27.804 13.429 26.5507 14.7038 25.0002 14.7038Z" fill="white"/>
</g>
<defs>
<clipPath id="clip0_5_661">
<rect width="50" height="50" fill="white"/>
</clipPath>
</defs>
</svg>
