<svg width="50" height="50" viewBox="0 0 50 50" fill="none" xmlns="http://www.w3.org/2000/svg">
<g clip-path="url(#clip0_5_692)">
<path d="M45 0H5C2.23858 0 0 2.23858 0 5V45C0 47.7614 2.23858 50 5 50H45C47.7614 50 50 47.7614 50 45V5C50 2.23858 47.7614 0 45 0Z" fill="#E44D26"/>
<path d="M25.0001 34.73L32.1226 32.7525L33.0851 22.0775H20.4151L20.1001 18.525H33.4001L33.7501 15.0425H16.2501L17.2301 25.56H29.2876L28.8851 30.075L25.0001 31.125L21.1151 30.075L20.8701 27.17H17.3701L17.8776 32.7525L25.0001 34.73ZM11.1226 9.25H38.8776L36.3751 37.6L25.0001 40.75L13.6251 37.6L11.1226 9.25Z" fill="white"/>
</g>
<defs>
<clipPath id="clip0_5_692">
<rect width="50" height="50" fill="white"/>
</clipPath>
</defs>
</svg>
