<svg width="50" height="50" viewBox="0 0 50 50" fill="none" xmlns="http://www.w3.org/2000/svg">
<g clip-path="url(#clip0_5_698)">
<path d="M45 0H5C2.23858 0 0 2.23858 0 5V45C0 47.7614 2.23858 50 5 50H45C47.7614 50 50 47.7614 50 45V5C50 2.23858 47.7614 0 45 0Z" fill="#FDE635"/>
<path d="M7.36719 6.616H42.8302V41.816H7.36719V6.616Z" fill="#FDE635"/>
<path d="M13.9639 36.77L17.1469 34.844C17.7609 35.933 18.3199 36.854 19.6599 36.854C20.9439 36.854 21.7539 36.354 21.7539 34.397V21.107H25.6629V34.452C25.6629 38.5 23.2899 40.343 19.8279 40.343C18.604 40.4092 17.3887 40.1032 16.3421 39.4652C15.2956 38.8273 14.4668 37.8872 13.9649 36.769L13.9639 36.77ZM27.7869 36.35L30.9699 34.507C31.3238 35.225 31.8731 35.8285 32.5547 36.2483C33.2363 36.6681 34.0225 36.887 34.8229 36.88C36.4429 36.88 37.4749 36.07 37.4749 34.953C37.4749 33.613 36.4139 33.138 34.6269 32.353L33.6529 31.939C30.8329 30.739 28.9619 29.231 28.9619 26.048C28.9619 23.116 31.1959 20.883 34.6859 20.883C35.8167 20.801 36.9467 21.0539 37.9347 21.61C38.9228 22.1661 39.7252 23.0008 40.2419 24.01L37.1979 25.965C36.9981 25.464 36.6508 25.0356 36.202 24.7365C35.7532 24.4373 35.2242 24.2816 34.6849 24.29C34.4498 24.2662 34.2123 24.2917 33.9876 24.3648C33.7629 24.438 33.556 24.5572 33.3799 24.7148C33.2039 24.8724 33.0626 25.065 32.9651 25.2802C32.8677 25.4955 32.8162 25.7287 32.8139 25.965C32.8139 27.138 33.5399 27.612 35.2139 28.338L36.1909 28.757C39.5139 30.181 41.3839 31.633 41.3839 34.899C41.3839 38.417 38.6199 40.344 34.9069 40.344C31.2769 40.344 28.9319 38.613 27.7869 36.351" fill="black"/>
</g>
<defs>
<clipPath id="clip0_5_698">
<rect width="50" height="50" fill="white"/>
</clipPath>
</defs>
</svg>
