<svg width="50" height="50" viewBox="0 0 50 50" fill="none" xmlns="http://www.w3.org/2000/svg">
<g clip-path="url(#clip0_5_146)">
<path d="M45 0H5C2.23858 0 0 2.23858 0 5V45C0 47.7614 2.23858 50 5 50H45C47.7614 50 50 47.7614 50 45V5C50 2.23858 47.7614 0 45 0Z" fill="#212529"/>
<path fill-rule="evenodd" clip-rule="evenodd" d="M36.6389 24.4198C36.6389 30.7598 31.4282 35.8994 25.0003 35.8994C18.5726 35.8994 13.3618 30.7598 13.3618 24.4198C13.3618 18.0797 18.5726 12.94 25.0003 12.94C31.4282 12.94 36.6389 18.0797 36.6389 24.4198Z" fill="#D33833"/>
<path d="M13.8361 27.2632C13.8361 27.2632 12.9936 15.2919 24.4327 14.9498L23.6347 13.6671L17.4275 15.6767L15.6539 17.6433L14.1021 20.508L13.2153 23.8429L13.4813 26.0661" fill="#EF3D3A"/>
<path d="M17.0287 16.5885C14.9867 18.6032 13.7231 21.385 13.7231 24.4625C13.7231 27.5393 14.9867 30.3215 17.0287 32.3359C19.0717 34.3503 21.8873 35.5933 25 35.5933C28.1128 35.5933 30.9285 34.3503 32.9713 32.3359C35.0132 30.3215 36.2771 27.5393 36.2771 24.4625C36.2771 21.385 35.0132 18.6032 32.9713 16.5885C30.9285 14.5744 28.1128 13.3314 25 13.3312C21.8873 13.3314 19.0717 14.5744 17.0287 16.5885ZM16.5118 32.8232C14.3417 30.683 13 27.7252 13 24.4625C13 21.1993 14.3417 18.2418 16.5118 16.1014C18.6815 13.9607 21.6849 12.6338 25 12.6342C28.3151 12.6338 31.3188 13.9607 33.4881 16.1014C35.6584 18.2418 37.0003 21.1996 37 24.4625C37.0003 27.7252 35.6584 30.683 33.4881 32.8232C31.3188 34.9638 28.3151 36.2905 25 36.2905C21.6849 36.2905 18.6815 34.9638 16.5118 32.8232Z" fill="#231F20"/>
<path fill-rule="evenodd" clip-rule="evenodd" d="M29.8994 24.4838L28.1258 24.7403L25.7315 24.9968L24.1797 25.0396L22.6722 24.9968L21.5194 24.6548L20.4996 23.5859L19.7015 21.4054L19.5242 20.9351L18.4601 20.5931L17.8394 19.6097L17.396 18.1988L17.8838 16.9589L19.0365 16.5741L19.9676 17.0017L20.411 17.9423L20.9431 17.8567L21.1204 17.643L20.9431 16.6596L20.8987 15.4197L21.1647 13.7096L21.1543 12.7327L21.9628 11.4863L23.3816 10.5029L25.8646 9.47681L28.6134 9.86161L31.0076 11.5291L32.1162 13.2392L32.8255 14.4791L33.0028 17.5575L32.4708 20.2083L31.4954 22.5598L30.5643 23.7997" fill="#F0D6B7"/>
<path fill-rule="evenodd" clip-rule="evenodd" d="M28.3919 31.8803L22.0516 32.1368V33.1629L22.5836 36.7543L22.3176 37.0537L17.8839 35.6L17.5734 35.0869L17.1301 30.2557L16.1105 27.3483L15.8887 26.6643L19.4356 24.3128L20.5442 23.8852L21.5195 25.0396L22.3619 25.7664L23.3374 26.0657L23.7807 26.1939L24.3128 28.4171L24.7118 28.8875L25.7316 28.5454L25.0222 29.8709L28.8795 31.6238L28.3919 31.8803Z" fill="#335061"/>
<path fill-rule="evenodd" clip-rule="evenodd" d="M17.8839 16.959L19.0366 16.5742L19.9677 17.0018L20.4111 17.9424L20.9432 17.8568L21.0762 17.3438L20.8102 16.3605L21.0762 14.0089L20.8544 12.7262L21.6525 11.8284L23.3817 10.503L22.894 9.86169L20.4554 11.0161L19.4356 11.7857L18.8593 12.9828L17.9725 14.1372L17.7065 15.5054L17.8839 16.959Z" fill="#6D6B6D"/>
<path fill-rule="evenodd" clip-rule="evenodd" d="M19.7017 12.9398C19.7017 12.9398 20.3668 11.358 23.0271 10.5884C25.6873 9.81878 23.1601 10.0325 23.1601 10.0325L20.2782 11.1014L19.1697 12.1702L18.6821 13.0254L19.7017 12.9398Z" fill="#DCD9D8"/>
<path fill-rule="evenodd" clip-rule="evenodd" d="M18.3715 16.6597C18.3715 16.6597 17.4404 13.6668 20.9875 13.2393L20.8544 12.7263L18.4159 13.2822L17.7065 15.5054L17.8839 16.959L18.3715 16.6597Z" fill="#DCD9D8"/>
<path fill-rule="evenodd" clip-rule="evenodd" d="M19.79 20.6358L20.3706 20.0934C20.3706 20.0934 20.6326 20.1228 20.6769 20.422C20.7211 20.7214 20.8541 23.4149 22.7606 24.8687C22.9345 25.0013 21.3419 24.6547 21.3419 24.6547L19.9231 22.5171" fill="#F7E4CD"/>
<path fill-rule="evenodd" clip-rule="evenodd" d="M27.9485 19.8232C27.9485 19.8232 28.0519 18.5273 28.4138 18.6269C28.7757 18.7266 28.7757 19.0756 28.7757 19.0756C28.7757 19.0756 27.8968 19.6239 27.9485 19.8232Z" fill="#F7E4CD"/>
<path d="M31.6285 15.0774C31.6285 15.0774 30.8977 15.2262 30.8304 15.847C30.7631 16.4679 31.6285 15.9752 31.7615 15.9325" fill="#F7E4CD"/>
<path d="M26.2636 15.1207C26.2636 15.1207 25.2881 15.2489 25.2881 15.8474C25.2881 16.446 26.3966 16.4033 26.7069 16.1468" fill="#F7E4CD"/>
<path fill-rule="evenodd" clip-rule="evenodd" d="M20.2335 17.8991C20.2335 17.8991 18.5486 16.9157 18.3713 17.8564C18.194 18.7969 17.7948 19.4811 18.6373 20.4644L18.061 20.2934L17.5289 18.968L17.3516 17.6854L18.3713 16.6591L19.5241 16.7447L20.1892 17.2577L20.2335 17.8991Z" fill="#F7E4CD"/>
<path fill-rule="evenodd" clip-rule="evenodd" d="M21.0315 15.2056C21.0315 15.2056 21.7852 11.4432 25.5983 10.7163C28.7376 10.118 30.3867 10.8446 31.0074 11.5286C31.0074 11.5286 28.2142 8.32209 25.5539 9.30537C22.8936 10.2888 20.9429 12.0845 20.9871 13.2388C21.0626 15.2048 21.0315 15.2056 21.0315 15.2056Z" fill="#F7E4CD"/>
<path fill-rule="evenodd" clip-rule="evenodd" d="M31.3179 11.9563C31.3179 11.9563 30.0322 11.9136 29.9878 13.0252C29.9878 13.0252 29.9876 13.1962 30.0764 13.3672C30.0764 13.3672 31.0963 12.2555 31.7169 12.8541" fill="#F7E4CD"/>
<path fill-rule="evenodd" clip-rule="evenodd" d="M25.6879 13.4832C25.6879 13.4832 25.4666 11.7769 23.958 12.7689C22.9825 13.4102 23.0713 14.308 23.2486 14.479C23.4259 14.6501 23.3777 14.9945 23.5127 14.7581C23.6476 14.5217 23.6032 13.7521 24.091 13.5384C24.5787 13.3246 25.3782 13.0858 25.6879 13.4832Z" fill="#F7E4CD"/>
<path fill-rule="evenodd" clip-rule="evenodd" d="M21.5195 25.0397L17.3518 26.8354C17.3518 26.8354 19.081 33.4624 18.1942 35.5146L17.5734 35.301L17.5291 32.7784L16.3765 27.9899L15.8887 26.6644L20.2337 23.8427L21.5195 25.0397Z" fill="#49728B"/>
<path fill-rule="evenodd" clip-rule="evenodd" d="M21.948 28.7048L22.5393 29.4005V31.9658H21.8298C21.8298 31.9658 21.7412 30.1701 21.7412 29.9563C21.7412 29.7425 21.8298 28.9729 21.8298 28.9729" fill="#49728B"/>
<path fill-rule="evenodd" clip-rule="evenodd" d="M21.963 32.3502L19.9678 32.4356L20.5443 32.8204L21.963 33.0342" fill="#49728B"/>
<path fill-rule="evenodd" clip-rule="evenodd" d="M28.791 31.9234L30.4314 31.8806L30.8304 35.8141L29.1456 36.0278L28.791 31.9234Z" fill="#335061"/>
<path fill-rule="evenodd" clip-rule="evenodd" d="M29.2344 31.9229L31.7173 31.7946C31.7173 31.7946 32.737 29.3148 32.737 29.1866C32.737 29.0583 33.6238 25.5952 33.6238 25.5952L31.6286 23.5858L31.2296 23.2437L30.1655 24.2698V28.246L29.2344 31.9229Z" fill="#335061"/>
<path fill-rule="evenodd" clip-rule="evenodd" d="M30.3427 31.6237L28.791 31.923L29.0126 33.1202C29.5889 33.3767 30.5644 32.6925 30.5644 32.6925" fill="#49728B"/>
<path fill-rule="evenodd" clip-rule="evenodd" d="M30.3872 24.142L33.4908 26.3652L33.5795 25.3391L31.2296 23.2442L30.3872 24.142Z" fill="#49728B"/>
<path fill-rule="evenodd" clip-rule="evenodd" d="M23.5013 40.3459L22.5833 36.754L22.1268 34.1037L22.0513 32.1365L26.2059 31.9232L28.7907 31.9228L28.5556 36.4124L28.9547 39.8756L28.9104 40.5169L25.5408 40.7734L23.5013 40.3459Z" fill="white"/>
<path fill-rule="evenodd" clip-rule="evenodd" d="M28.2146 31.8801C28.2146 31.8801 27.993 36.3267 28.658 39.4905C28.658 39.4905 27.3279 40.3029 25.377 40.5166L29.1014 40.3883L29.5447 40.1318L29.0127 33.1201L28.8796 31.6235" fill="#DCD9D8"/>
<path fill-rule="evenodd" clip-rule="evenodd" d="M30.9058 35.4717L32.635 35.0014L35.9158 34.8304L36.4036 33.3767L35.5168 30.8542L34.4971 30.7259L33.0783 31.1534L31.717 31.7943L30.9944 31.6665L30.4312 31.8799" fill="white"/>
<path fill-rule="evenodd" clip-rule="evenodd" d="M30.8745 34.6168C30.8745 34.6168 32.0272 34.1038 32.2047 34.1466L31.717 31.795L32.2934 31.5813C32.2934 31.5813 32.6924 33.8045 32.6924 34.061C32.6924 34.061 35.1752 34.1893 35.397 34.1893C35.397 34.1893 35.929 33.2059 35.796 32.1798L36.2838 33.5479L36.3281 34.3175L35.6187 35.3436L34.8206 35.5146L33.4905 35.4719L33.0472 34.9162L31.4953 35.1299L31.0075 35.301" fill="#DCD9D8"/>
<path d="M29.1324 31.5811L28.157 29.1867L27.1372 27.7758C27.1372 27.7758 27.3588 27.1772 27.6693 27.1772C27.9797 27.1772 28.6891 27.1772 28.6891 27.1772L29.6644 27.5193L29.5759 29.1012L29.1324 31.5811Z" fill="white"/>
<path fill-rule="evenodd" clip-rule="evenodd" d="M29.3227 30.7687C29.3227 30.7687 28.0812 28.46 28.0812 28.1179C28.0812 28.1179 28.3028 27.6049 28.6132 27.7331C28.9237 27.8614 29.5887 28.2034 29.5887 28.2034V27.3911L28.0812 27.0917L27.0615 27.22L28.7907 31.1534L29.1453 31.1963" fill="#DCD9D8"/>
<path d="M23.9006 25.1252L22.6724 24.9964L21.5195 24.6543V25.0391L22.0828 25.6381L23.8563 26.4077" fill="white"/>
<path fill-rule="evenodd" clip-rule="evenodd" d="M21.9186 25.2537C21.9186 25.2537 23.2932 25.8096 23.7365 25.6813L23.7806 26.1938L22.5394 25.9378L21.7856 25.4248L21.9186 25.2537Z" fill="#DCD9D8"/>
<path fill-rule="evenodd" clip-rule="evenodd" d="M30.9012 27.3228C30.1489 27.3015 29.4692 27.2153 28.8741 27.0534C28.9145 26.8182 28.8388 26.5873 28.8996 26.4178C29.0655 26.3027 29.3435 26.3045 29.5942 26.2774C29.3774 26.1747 29.0728 26.134 28.8226 26.1934C28.8168 26.0301 28.7408 25.9289 28.6948 25.8012C29.1178 25.6556 30.1163 24.7012 30.678 25.0172C30.9456 25.1675 31.0594 26.0261 31.0801 26.4436C31.0974 26.7899 31.0475 27.1393 30.9012 27.3228Z" fill="#D33833"/>
<path d="M30.9012 27.3228C30.1489 27.3015 29.4692 27.2153 28.8741 27.0534C28.9145 26.8182 28.8388 26.5873 28.8996 26.4178C29.0655 26.3027 29.3435 26.3045 29.5942 26.2774C29.3774 26.1747 29.0728 26.134 28.8226 26.1934C28.8168 26.0301 28.7408 25.9289 28.6948 25.8012C29.1178 25.6556 30.1163 24.7012 30.678 25.0172C30.9456 25.1675 31.0594 26.0261 31.0801 26.4436C31.0974 26.7899 31.0475 27.1393 30.9012 27.3228Z" stroke="#D33833" stroke-width="2.5"/>
<path fill-rule="evenodd" clip-rule="evenodd" d="M27.3035 26.1374C27.3015 26.1923 27.2991 26.2476 27.2969 26.303C27.062 26.4518 26.6827 26.45 26.425 26.575C26.805 26.5911 27.1041 26.6793 27.363 26.8037C27.3572 26.942 27.3518 27.0801 27.3462 27.2184C26.9156 27.5026 26.5223 27.9259 26.0154 28.1925C25.7757 28.3185 24.9345 28.6429 24.6795 28.5856C24.5352 28.5532 24.5222 28.3806 24.4645 28.2179C24.3417 27.8693 24.0587 27.3146 24.0341 26.79C24.0026 26.1274 23.9333 25.0169 24.6738 25.1533C25.2712 25.2633 25.966 25.5286 26.4285 25.7723C26.7112 25.9214 26.8747 26.1056 27.3035 26.1374Z" fill="#D33833"/>
<path d="M27.3035 26.1374C27.3015 26.1923 27.2991 26.2476 27.2969 26.303C27.062 26.4518 26.6827 26.45 26.425 26.575C26.805 26.5911 27.1041 26.6793 27.363 26.8037C27.3572 26.942 27.3518 27.0801 27.3462 27.2184C26.9156 27.5026 26.5223 27.9259 26.0154 28.1925C25.7757 28.3185 24.9345 28.6429 24.6795 28.5856C24.5352 28.5532 24.5222 28.3806 24.4645 28.2179C24.3417 27.8693 24.0587 27.3146 24.0341 26.79C24.0026 26.1274 23.9333 25.0169 24.6738 25.1533C25.2712 25.2633 25.966 25.5286 26.4285 25.7723C26.7112 25.9214 26.8747 26.1056 27.3035 26.1374Z" stroke="#D33833" stroke-width="2.5"/>
<path fill-rule="evenodd" clip-rule="evenodd" d="M27.7311 26.9278C27.6653 26.5669 27.5894 26.4639 27.6188 26.149C28.617 25.5072 28.8045 27.2514 27.7311 26.9278Z" fill="#D33833"/>
<path d="M27.7311 26.9278C27.6653 26.5669 27.5894 26.4639 27.6188 26.149C28.617 25.5072 28.8045 27.2514 27.7311 26.9278Z" stroke="#D33833" stroke-width="2.5"/>
<path fill-rule="evenodd" clip-rule="evenodd" d="M29.1765 27.2202C29.1765 27.2202 28.866 26.7926 29.0878 26.6643C29.3095 26.5361 29.5312 26.6644 29.6642 26.4506C29.7973 26.2368 29.6642 26.1085 29.7085 25.852C29.7528 25.5955 29.9747 25.5526 30.1963 25.5099C30.4179 25.4672 31.0388 25.3817 31.1274 25.5955L30.8614 24.8259L30.3293 24.6549L28.6444 25.5955L28.5557 26.0658V27.0064" fill="#EF3D3A"/>
<path fill-rule="evenodd" clip-rule="evenodd" d="M24.5211 28.6313C24.4678 27.9641 24.4114 27.2978 24.3487 26.6312C24.2549 25.6358 24.5967 25.8095 25.4914 25.8095C25.628 25.8095 26.3328 25.9666 26.3832 26.066C26.625 26.5423 25.9789 26.4365 26.6617 26.7956C27.2382 27.0987 28.2566 26.6116 28.0237 25.9378C27.8933 25.788 27.3445 25.8911 27.1478 25.7927C26.8014 25.6196 26.455 25.4464 26.1086 25.2732C25.6679 25.0528 24.6494 24.7313 24.1795 25.0394C22.989 25.8202 24.2547 27.7709 24.6794 28.5854" fill="#EF3D3A"/>
<path fill-rule="evenodd" clip-rule="evenodd" d="M25.6878 13.4829C24.4794 13.2115 23.8789 13.9705 23.5126 14.7578C23.1855 14.6814 23.3157 14.2525 23.3983 14.0339C23.6146 13.4603 24.4863 12.6967 25.1985 12.8002C25.505 12.8447 25.9198 13.115 25.6878 13.4829Z" fill="#231F20"/>
<path fill-rule="evenodd" clip-rule="evenodd" d="M31.5759 14.8105C31.5949 14.8113 31.6142 14.8119 31.6332 14.8127C31.9063 15.3597 32.1426 15.9392 32.4871 16.4222C32.2564 16.9405 30.7396 17.3991 30.763 16.4685C31.091 16.3302 31.6573 16.4402 31.948 16.2636C31.7799 15.8187 31.5373 15.4399 31.5759 14.8105Z" fill="#231F20"/>
<path fill-rule="evenodd" clip-rule="evenodd" d="M26.3065 14.8244C26.5656 15.2824 26.6499 15.7637 27.0182 16.1099C27.1841 16.2657 27.5067 16.4557 27.3468 16.8891C27.3094 16.9913 27.0363 17.2192 26.8787 17.264C26.3029 17.4279 24.9612 17.2979 25.4155 16.6056C25.8917 16.627 26.5318 16.9038 26.8877 16.5705C26.6144 16.1491 26.1271 15.3155 26.3065 14.8244Z" fill="#231F20"/>
<path fill-rule="evenodd" clip-rule="evenodd" d="M31.3597 19.4795C30.4928 20.0165 29.526 20.6005 28.1055 20.465C27.8019 20.2106 27.6862 19.6443 27.9811 19.2703C28.1346 19.5247 28.0381 19.9928 28.4659 20.0632C29.272 20.1962 30.2101 19.5877 30.7899 19.3751C31.1494 18.7906 30.7589 18.5756 30.435 18.1994C29.772 17.4286 28.8825 16.4733 28.9148 15.3195C29.1829 15.1321 29.206 15.6055 29.2444 15.6917C29.5907 16.4731 30.462 17.4724 31.098 18.1411C31.2541 18.3058 31.5112 18.4639 31.5398 18.5728C31.6223 18.8894 31.3253 19.2688 31.3597 19.4795Z" fill="#231F20"/>
<path fill-rule="evenodd" clip-rule="evenodd" d="M19.9301 18.9146C19.6583 18.765 19.5936 18.1063 19.2746 18.0875C18.8187 18.0608 18.9018 18.9422 18.9036 19.4575C18.5898 19.1828 18.5346 18.3369 18.7652 17.9024C18.5024 17.778 18.3851 18.0397 18.2393 18.1319C18.4266 16.8198 20.2299 17.5233 19.9301 18.9146Z" fill="#231F20"/>
<path fill-rule="evenodd" clip-rule="evenodd" d="M31.9119 20.0262C31.5084 20.767 30.9375 21.5827 29.7533 21.6064C29.7292 21.3672 29.7107 21.0032 29.7546 20.8592C30.6599 20.7753 31.2188 20.331 31.9119 20.0262Z" fill="#231F20"/>
<path fill-rule="evenodd" clip-rule="evenodd" d="M26.2383 20.5058C26.9936 20.8888 28.3817 20.93 29.4083 20.901C29.4634 21.1179 29.462 21.3858 29.4642 21.6503C28.1446 21.7138 26.5843 21.3989 26.2383 20.5058Z" fill="#231F20"/>
<path fill-rule="evenodd" clip-rule="evenodd" d="M26.0946 21.2201C26.6169 22.4846 28.4121 22.3391 29.9259 22.3042C29.8592 22.4683 29.7148 22.6623 29.5352 22.7324C29.0501 22.9228 27.7122 23.0672 27.0387 22.7223C26.6116 22.5034 26.3372 22.0086 26.1032 21.7186C25.9902 21.5786 25.4275 21.2208 26.0946 21.2201Z" fill="#231F20"/>
<path fill-rule="evenodd" clip-rule="evenodd" d="M31.2967 28.1957C30.6838 29.208 30.0973 30.2477 29.3701 31.1406C29.675 30.2762 29.8055 28.8295 29.8515 27.7266C30.4893 27.4388 31.0354 27.7914 31.2967 28.1957Z" fill="#81B0C4"/>
<path fill-rule="evenodd" clip-rule="evenodd" d="M34.5947 31.8341C33.9085 31.9666 33.4263 32.6097 32.7568 32.5684C33.1248 32.0683 33.7695 31.8574 34.5947 31.8341Z" fill="#231F20"/>
<path fill-rule="evenodd" clip-rule="evenodd" d="M34.8974 32.8697C34.3381 32.9267 33.6811 33.014 33.1138 32.969C33.3824 32.5734 34.4171 32.7099 34.8974 32.8697Z" fill="#231F20"/>
<path fill-rule="evenodd" clip-rule="evenodd" d="M35.0914 33.7621C34.4628 33.7753 33.6815 33.7632 33.084 33.7148C33.4374 33.3488 34.6837 33.579 35.0914 33.7621Z" fill="#231F20"/>
<path fill-rule="evenodd" clip-rule="evenodd" d="M30.114 36.2056C30.2042 36.9669 30.5172 37.7382 30.4779 38.5719C30.1304 38.6849 29.9307 38.7838 29.4651 38.7832C29.4322 38.0746 29.3339 36.9915 29.3633 36.316C29.5924 36.3306 29.9301 36.1582 30.114 36.2056Z" fill="#DCD9D8"/>
<path fill-rule="evenodd" clip-rule="evenodd" d="M29.1003 24.9859C28.7847 25.1846 28.5159 25.4326 28.2127 25.6448C27.5405 25.6769 27.1736 25.5999 26.6797 25.2277C26.6879 25.1978 26.7375 25.2111 26.7393 25.1745C27.4589 25.4837 28.3737 25.0485 29.1003 24.9859Z" fill="#F0D6B7"/>
<path fill-rule="evenodd" clip-rule="evenodd" d="M25.3228 29.7163C25.5205 28.8902 26.2952 28.4623 26.9987 28.0073C27.7248 28.896 28.1664 30.0388 28.6527 31.1416C27.5037 30.8076 26.3297 30.2657 25.3228 29.7163Z" fill="#81B0C4"/>
<path fill-rule="evenodd" clip-rule="evenodd" d="M29.3634 36.3163C29.334 36.9917 29.4323 38.0749 29.4652 38.7835C29.9309 38.7841 30.1305 38.6852 30.4781 38.5722C30.5173 37.7385 30.2043 36.9671 30.1141 36.2058C29.9302 36.1585 29.5925 36.3309 29.3634 36.3163ZM22.1124 32.4749C22.4194 35.1971 22.8642 37.4854 23.6799 39.8959C25.4904 40.426 27.673 40.4722 29.2732 39.9939C28.9794 38.6333 29.1078 36.977 28.9361 35.5251C28.8066 34.4339 28.8726 33.3359 28.6952 32.2226C26.7561 31.8336 24.0153 32.1316 22.1124 32.4749ZM29.1537 32.2397C29.1373 33.4088 29.2079 34.562 29.3005 35.7326C29.7661 35.6652 30.082 35.6202 30.5145 35.5287C30.3741 34.4018 30.3913 33.1338 30.1052 32.1369C29.7746 32.1399 29.4834 32.1332 29.1537 32.2397ZM31.5153 32.0512C31.2944 32.0024 31.0371 32.0493 30.826 32.0533C30.9253 33.0063 31.166 34.0579 31.2507 35.0583C31.5829 35.0682 31.7603 34.9172 32.0335 34.8664C32.0481 33.9883 31.954 32.7785 31.5153 32.0512ZM35.0912 35.2018C35.7835 35.0396 36.2189 34.222 36.0252 33.3822C35.8953 32.8179 35.6638 31.7552 35.4162 31.3941C35.2331 31.1271 34.7369 30.7774 34.3406 31.0221C33.696 31.4202 32.5605 31.5357 32.0904 32.0175C32.3261 32.7743 32.3993 33.8137 32.4965 34.7726C33.3018 34.821 34.2926 34.5589 34.9623 34.837C34.4948 34.9831 33.8881 34.9842 33.4842 35.1971C33.8143 35.3508 34.5872 35.3198 35.0912 35.2018ZM28.653 31.1417C28.1667 30.0389 27.7251 28.8961 26.999 28.0074C26.2955 28.4624 25.5208 28.8902 25.3231 29.7164C26.3301 30.2658 27.504 30.8077 28.653 31.1417ZM29.8517 27.7266C29.8057 28.8296 29.6752 30.2763 29.3703 31.1407C30.0975 30.2478 30.684 29.2081 31.2969 28.1958C31.0357 27.7914 30.4895 27.4388 29.8517 27.7266ZM28.4929 27.261C28.2174 27.2324 27.9835 27.5664 27.6253 27.422C27.5433 27.5095 27.4687 27.6043 27.385 27.6897C28.1762 28.6091 28.5357 29.9136 29.1467 30.994C29.4746 29.9561 29.4368 28.819 29.5091 27.6862C29.0586 27.7138 28.8086 27.2934 28.4929 27.261ZM27.6191 26.149C27.5897 26.4639 27.6656 26.5669 27.7314 26.9278C28.8048 27.2514 28.6174 25.5072 27.6191 26.149ZM26.4288 25.7722C25.9662 25.5284 25.2714 25.2631 24.674 25.1531C23.9335 25.0165 24.0029 26.1272 24.0343 26.7898C24.059 27.3144 24.3419 27.8691 24.4648 28.2177C24.5224 28.3804 24.5354 28.5531 24.6797 28.5854C24.9347 28.6427 25.7759 28.3183 26.0156 28.1923C26.5225 27.9257 26.9159 27.5024 27.3464 27.2182C27.352 27.0799 27.3575 26.9418 27.3632 26.8035C27.1043 26.6791 26.8052 26.5909 26.4252 26.5748C26.683 26.4498 27.0622 26.4516 27.2971 26.3028C27.2993 26.2474 27.3017 26.1921 27.3037 26.1372C26.8749 26.1054 26.7114 25.9212 26.4288 25.7722ZM22.0109 24.9983C21.6271 25.3741 23.0876 25.8864 23.5526 25.914C23.55 25.6762 23.6932 25.452 23.6643 25.2814C23.112 25.1879 22.3862 25.2496 22.0109 24.9983ZM26.7397 25.1748C26.7379 25.2115 26.6883 25.1982 26.6802 25.2281C27.174 25.6003 27.5409 25.6772 28.2131 25.6452C28.5163 25.433 28.7851 25.185 29.1007 24.9863C28.3741 25.0489 27.4593 25.4841 26.7397 25.1748ZM31.0802 26.444C31.0595 26.0265 30.9457 25.1679 30.6781 25.0176C30.1164 24.7014 29.1179 25.6559 28.6949 25.8015C28.7409 25.9293 28.8169 26.0305 28.8227 26.1938C29.0729 26.1344 29.3775 26.175 29.5943 26.2778C29.3436 26.3048 29.0656 26.303 28.8997 26.4182C28.839 26.5877 28.9146 26.8185 28.8742 27.0538C29.4693 27.2156 30.149 27.3018 30.9013 27.3231C31.0476 27.1397 31.0975 26.7903 31.0802 26.444ZM21.3647 25.3618C21.2441 25.279 20.4287 24.2558 20.3169 24.2983C18.8413 24.8594 17.4616 25.8297 16.2286 26.7475C17.4042 29.1799 17.8787 32.16 17.9626 35.0323C19.3092 35.6397 20.492 36.5152 22.3194 36.6067C22.1079 35.1639 21.9149 33.8768 21.7949 32.5185C21.3357 32.3318 20.677 32.5269 20.2473 32.4606C20.2437 31.9613 20.9036 32.242 20.9585 31.9062C20.9999 31.6522 20.5954 31.633 20.7271 31.233C21.0631 31.3508 21.2395 31.6109 21.5977 31.7085C21.925 31.0179 21.5931 29.7961 21.6403 29.2189C21.6492 29.1105 21.6964 28.6185 21.9482 28.7048C22.171 28.7812 21.9354 30.0134 21.9599 30.5596C21.9821 31.0629 21.8968 31.5499 22.1082 31.8659C23.874 31.6341 25.6684 31.4843 27.5789 31.4337C27.1586 31.2598 26.6593 31.0952 26.1118 30.7977C25.815 30.6364 24.8795 30.3007 24.7939 30.0288C24.6573 29.5957 25.1524 29.365 25.2371 28.9937C24.3458 29.4624 24.1719 28.5443 23.961 27.8939C23.77 27.3048 23.6612 26.8647 23.6143 26.5249C22.8465 26.172 22.0256 25.8145 21.3647 25.3618ZM30.3004 24.422C31.5298 23.8472 31.7514 26.5706 31.2695 27.4479C31.344 27.7096 31.6002 27.8098 31.7047 28.045C31.0186 29.2302 30.2566 30.3364 29.5566 31.5076C30.0773 31.195 30.8211 31.4517 31.4339 31.2178C31.6579 31.1323 31.82 30.6379 31.9896 30.2423C32.4561 29.154 32.9459 27.7819 33.1637 26.7434C33.2129 26.5067 33.347 25.9911 33.317 25.7805C33.2633 25.4034 32.7328 25.1238 32.4629 24.8906C31.9657 24.4599 31.6526 24.0809 31.134 23.6781C30.9237 23.9775 30.4723 24.1786 30.3004 24.422ZM18.553 13.9084C17.9671 14.53 18.0898 15.6947 18.1607 16.5232C19.2196 15.8809 20.625 16.574 20.6118 17.6666C21.1174 17.6536 20.8007 17.0577 20.7092 16.6738C20.4104 15.4199 21.2127 14.0576 20.7456 12.9109C19.8387 12.9772 19.0936 13.3345 18.553 13.9084ZM22.7447 10.3009C21.4185 10.6634 19.7187 11.5926 19.1738 12.7415C19.5958 12.6824 19.8887 12.4771 20.305 12.4517C20.4623 12.4419 20.6684 12.5154 20.8493 12.472C21.2096 12.3858 21.5137 11.6067 21.7855 11.3169C22.0505 11.0338 22.369 10.9128 22.587 10.6548C22.727 10.5896 22.9341 10.5941 22.942 10.3913C22.8813 10.3287 22.8174 10.281 22.7447 10.3009ZM29.6485 10.6418C28.2719 9.89286 25.9419 9.32953 24.4776 10.0334C23.2961 10.6015 21.699 11.5414 21.1545 12.7325C21.6632 13.8819 21.0038 14.9351 20.9617 16.102C20.9394 16.723 21.2649 17.265 21.2899 17.941C21.1158 18.2179 20.584 18.252 20.2159 18.233C20.092 17.635 19.875 16.9629 19.2365 16.8955C18.3329 16.8002 17.6723 17.5213 17.6312 18.2748C17.5827 19.161 18.3371 20.6298 19.4064 20.5278C19.8194 20.4884 19.9209 20.0891 20.371 20.0932C20.6149 20.5626 19.9947 20.7099 19.9309 21.0456C19.9143 21.1323 19.9823 21.4712 20.0219 21.6301C20.2161 22.4039 20.6491 23.4054 21.0753 23.9945C21.6162 24.7418 22.6788 24.8544 23.822 24.9277C24.0262 24.5035 24.7784 24.5384 25.2685 24.6493C24.6812 24.425 24.1351 23.8811 23.6825 23.3998C23.1627 22.8475 22.6361 22.255 22.6095 21.5331C23.5919 22.8473 24.4034 23.995 26.1898 24.5731C27.5414 25.0103 29.12 24.3728 30.1586 23.6695C30.5895 23.3772 30.8468 22.9134 31.1531 22.4888C32.2993 20.899 32.8341 18.6297 32.7165 16.4303C32.6681 15.5232 32.6702 14.6192 32.3546 14.0089C32.0247 13.3708 30.909 12.7999 30.2559 13.377C30.1349 12.7565 30.799 12.3727 31.5791 12.596C31.0229 11.9038 30.4391 11.072 29.6485 10.6418ZM32.2131 31.1086C33.2888 30.593 35.2986 29.7207 35.973 31.1105C36.2218 31.6228 36.5138 32.4889 36.6427 33.0177C36.8248 33.7638 36.4453 35.332 35.65 35.5824C34.9476 35.8035 34.1279 35.79 33.2818 35.6261C33.1822 35.5462 33.0713 35.4069 32.9937 35.2617C32.3896 35.2391 31.8239 35.293 31.3466 35.5324C31.3919 35.9633 31.0897 36.0324 30.8063 36.1212C30.5963 36.9242 31.2265 37.9729 31.0757 38.7052C30.9681 39.2269 30.3025 39.3075 29.8133 39.4051C29.7973 39.695 29.8347 39.937 29.8681 40.1823C29.7562 40.5798 29.2545 40.806 28.7791 40.8614C27.215 41.0428 24.8402 41.1243 23.3357 40.6026C22.9159 39.6096 22.5852 38.4019 22.2355 37.268C20.7682 37.4191 19.5815 36.6575 18.4627 36.1585C18.0754 35.9853 17.5395 35.8899 17.3948 35.5926C17.2545 35.3048 17.3119 34.7531 17.2771 34.232C17.1885 32.901 17.1127 31.6172 16.7482 30.2544C16.5845 29.6428 16.2993 29.1032 16.1003 28.5139C15.9163 27.9678 15.595 27.2929 15.5112 26.7482C15.3869 25.9411 16.1751 25.8962 16.6791 25.5464C17.4582 25.0055 18.0698 24.7064 18.9135 24.2182C19.1635 24.0737 19.9171 23.7077 20.0029 23.5392C20.1733 23.2051 19.7103 22.7339 19.5866 22.472C19.3908 22.0579 19.2887 21.706 19.2606 21.2974C18.5528 21.1895 18.0162 20.7833 17.6921 20.3253C17.156 19.5672 16.7841 18.1648 17.248 17.098C17.2844 17.014 17.4658 16.8488 17.4926 16.7197C17.5454 16.4657 17.3933 16.1278 17.3838 15.8576C17.3351 14.471 17.6271 13.2764 18.5951 12.8582C18.988 11.3487 20.3945 10.8468 21.7195 10.0965C22.2149 9.81616 22.7609 9.63698 23.3248 9.43688C25.3477 8.71899 28.4514 8.85418 30.1302 10.0786C30.8421 10.5978 31.98 11.6941 32.3871 12.4878C33.4621 14.5832 33.3857 18.0853 32.6338 20.6343C32.5326 20.9765 32.3861 21.4795 32.1814 21.8906C32.0387 22.1777 31.5951 22.752 31.649 23.0055C31.7044 23.2675 32.6604 23.9675 32.8654 24.1581C33.2345 24.5014 33.9356 24.9572 33.9925 25.3904C34.0536 25.8515 33.7818 26.4824 33.6442 26.9273C33.1839 28.4122 32.7348 29.7848 32.2131 31.1086Z" fill="#231F20"/>
<path fill-rule="evenodd" clip-rule="evenodd" d="M25.0365 20.8298C25.0949 20.7549 25.4157 20.6411 25.8646 20.8496C25.8646 20.8496 25.3326 20.9351 25.3769 21.7905L25.1552 21.7477C25.1552 21.7477 24.926 20.9721 25.0365 20.8298Z" fill="#F7E4CD"/>
<path fill-rule="evenodd" clip-rule="evenodd" d="M28.9238 28.1819C28.9238 28.3117 28.8146 28.417 28.6798 28.417C28.5452 28.417 28.436 28.3117 28.436 28.1819C28.436 28.0521 28.5452 27.9467 28.6798 27.9467C28.8146 27.9467 28.9238 28.0521 28.9238 28.1819Z" fill="#1D1919"/>
<path fill-rule="evenodd" clip-rule="evenodd" d="M29.1675 29.2722C29.1675 29.4021 29.0583 29.5073 28.9235 29.5073C28.7889 29.5073 28.6797 29.4021 28.6797 29.2722C28.6797 29.1424 28.7889 29.037 28.9235 29.037C29.0583 29.037 29.1675 29.1424 29.1675 29.2722Z" fill="#1D1919"/>
</g>
<defs>
<clipPath id="clip0_5_146">
<rect width="50" height="50" fill="white"/>
</clipPath>
</defs>
</svg>
