<svg width="50" height="50" viewBox="0 0 50 50" fill="none" xmlns="http://www.w3.org/2000/svg">
<g clip-path="url(#clip0_5_206)">
<path d="M45 0H5C2.23858 0 0 2.23858 0 5V45C0 47.7614 2.23858 50 5 50H45C47.7614 50 50 47.7614 50 45V5C50 2.23858 47.7614 0 45 0Z" fill="#F4511E"/>
<path d="M30.7314 16.9163L28.5537 21.2932C29.2691 21.9529 29.7741 22.822 29.974 23.8063H31.6151C31.8045 22.8744 32.2673 22.0367 32.9301 21.3875L30.7314 16.9163Z" fill="white"/>
<path d="M26.7229 20.2356L30.731 12.1728L34.7286 20.288C34.8865 20.2356 35.0443 20.1937 35.2021 20.1518L38.9998 9H22.4517L26.2389 20.1204C26.3967 20.1518 26.5651 20.1937 26.7229 20.2356Z" fill="white"/>
<path d="M25.345 27.3664C26.8073 27.3664 27.9961 26.1832 27.9961 24.7277C27.9961 24.1936 27.8383 23.7015 27.5648 23.2826C27.4806 23.1465 27.3754 23.0209 27.2702 22.9057L27.2597 22.8952C27.1545 22.78 27.0283 22.6753 26.902 22.5915L26.8915 22.5811C26.8599 22.5601 26.8179 22.5287 26.7758 22.5078C26.7653 22.5078 26.7653 22.4973 26.7547 22.4973C26.7127 22.4764 26.6706 22.4449 26.6285 22.424H26.618C26.5759 22.4031 26.5233 22.3716 26.4812 22.3507H26.4707C26.4286 22.3298 26.3865 22.3088 26.3444 22.2983C26.3339 22.2983 26.3234 22.2879 26.3129 22.2879C26.2813 22.2774 26.2392 22.2565 26.2077 22.246C26.1972 22.246 26.1866 22.2355 26.1656 22.2355C26.1235 22.225 26.0814 22.2041 26.0394 22.1936H26.0288C25.9762 22.1832 25.9342 22.1727 25.8816 22.1622C25.871 22.1622 25.8605 22.1622 25.8395 22.1517C25.7974 22.1413 25.7658 22.1413 25.7238 22.1308C25.7027 22.1308 25.6922 22.1308 25.6712 22.1203C25.6396 22.1203 25.5975 22.1099 25.566 22.1099H25.5134H25.3556H25.1978H25.1557C25.1136 22.1099 25.082 22.1203 25.04 22.1203H24.9979C24.9558 22.1308 24.9137 22.1308 24.8716 22.1413H24.8401C24.7875 22.1517 24.7454 22.1622 24.6928 22.1727C23.5356 22.4554 22.6729 23.5025 22.6729 24.7381C22.694 26.1727 23.8827 27.3664 25.345 27.3664Z" fill="white"/>
<path d="M36.4961 22.0891H36.4751C36.433 22.0891 36.4015 22.0786 36.3594 22.0786H36.2226C36.17 22.0786 36.1174 22.0786 36.0543 22.0891H36.0017C35.9596 22.0891 35.9175 22.0996 35.8754 22.0996C35.8649 22.0996 35.8439 22.0996 35.8334 22.11L35.6756 22.1414H35.665C35.6124 22.1519 35.5704 22.1624 35.5178 22.1729C35.5072 22.1729 35.4862 22.1833 35.4757 22.1833C35.4336 22.1938 35.3915 22.2043 35.3494 22.2252C35.3389 22.2252 35.3284 22.2357 35.3179 22.2357C35.2653 22.2566 35.2127 22.2776 35.1706 22.2985C35.118 22.3195 35.0759 22.3404 35.0233 22.3613C35.0128 22.3613 35.0023 22.3718 34.9918 22.3718C34.9497 22.3927 34.9076 22.4137 34.8655 22.4451C34.8655 22.4451 34.855 22.4451 34.855 22.4556C34.7603 22.5079 34.6656 22.5708 34.5815 22.6441L34.571 22.6545C34.4342 22.7592 34.3185 22.8744 34.2028 23.0001C34.087 23.1257 33.9924 23.2723 33.9082 23.4189C33.6873 23.8064 33.561 24.2566 33.561 24.7278C33.561 26.1833 34.7498 27.3666 36.2121 27.3666C37.6744 27.3666 38.8632 26.1833 38.8632 24.7278C38.8632 23.4503 37.9374 22.3718 36.7276 22.131C36.6645 22.11 36.5803 22.0996 36.4961 22.0891Z" fill="white"/>
<path d="M14.3512 27.3664C15.8135 27.3664 17.0023 26.1831 17.0023 24.7276C17.0023 23.2721 15.8135 22.0889 14.3512 22.0889C12.8889 22.0889 11.7002 23.2721 11.7002 24.7276C11.7002 26.1831 12.8889 27.3664 14.3512 27.3664Z" fill="white"/>
<path d="M36.2332 29.4085C34.045 29.4085 32.204 27.9111 31.678 25.9006H29.9106C29.3846 27.9111 27.5436 29.4085 25.3554 29.4085C25.103 29.4085 24.861 29.3875 24.6296 29.3561C24.0194 30.2881 23.2935 31.1467 22.4414 31.9425C20.937 33.3561 19.2328 34.4033 17.3917 35.0629L16.9604 35.22L16.5607 35.0106C14.3514 33.8797 13.2153 31.5865 13.615 29.3666C13.3625 29.3247 13.1206 29.2619 12.8891 29.1781C12.8471 29.2514 12.8155 29.3352 12.7734 29.419C12.1001 30.8012 11.3953 32.2252 11.1428 33.754C10.8693 35.3875 10.7536 38.3718 13.068 39.9635C14.0779 40.6546 15.1404 41.0001 16.3292 41.0001C18.6121 41.0001 21.0738 39.7855 23.6828 38.4975C25.7237 37.4923 27.8277 36.4451 30.0158 35.9111C30.8469 35.7122 31.6885 35.5865 32.4986 35.4713C33.9819 35.2619 35.3916 35.0525 36.5383 34.3928C37.7586 33.6912 38.5897 32.5184 38.8212 31.1781C38.9684 30.3614 38.8843 29.5341 38.6108 28.7697C37.9164 29.1677 37.1064 29.4085 36.2332 29.4085Z" fill="white"/>
</g>
<defs>
<clipPath id="clip0_5_206">
<rect width="50" height="50" fill="white"/>
</clipPath>
</defs>
</svg>
