<svg width="50" height="50" viewBox="0 0 50 50" fill="none" xmlns="http://www.w3.org/2000/svg">
<g clip-path="url(#clip0_5_227)">
<path d="M45 0H5C2.23858 0 0 2.23858 0 5V45C0 47.7614 2.23858 50 5 50H45C47.7614 50 50 47.7614 50 45V5C50 2.23858 47.7614 0 45 0Z" fill="#27282C"/>
<path d="M11 11.0002V39H39.0029V38.954L32.055 31.9547L25.1044 24.9499L32.055 17.9452L38.9487 11L11 11.0002Z" fill="url(#paint0_linear_5_227)"/>
<path d="M25.3474 11.0002L11.0269 25.3208V39H11.1568L25.1689 24.9878L25.131 24.9499L32.0816 17.9452L38.9753 11H25.3476L25.3474 11.0002Z" fill="url(#paint1_linear_5_227)"/>
</g>
<defs>
<linearGradient id="paint0_linear_5_227" x1="10.8007" y1="39.5496" x2="39.1532" y2="10.8811" gradientUnits="userSpaceOnUse">
<stop stop-color="#0296D8"/>
<stop offset="1" stop-color="#8371D9"/>
</linearGradient>
<linearGradient id="paint1_linear_5_227" x1="11.0273" y1="39.1504" x2="40.0301" y2="12.8143" gradientUnits="userSpaceOnUse">
<stop stop-color="#CB55C0"/>
<stop offset="1" stop-color="#F28E0E"/>
</linearGradient>
<clipPath id="clip0_5_227">
<rect width="50" height="50" fill="white"/>
</clipPath>
</defs>
</svg>
