<svg width="50" height="50" viewBox="0 0 50 50" fill="none" xmlns="http://www.w3.org/2000/svg">
<g clip-path="url(#clip0_5_241)">
<path d="M45 0H5C2.23858 0 0 2.23858 0 5V45C0 47.7614 2.23858 50 5 50H45C47.7614 50 50 47.7614 50 45V5C50 2.23858 47.7614 0 45 0Z" fill="#42A5F5"/>
<path d="M25 39C32.732 39 39 32.732 39 25C39 17.268 32.732 11 25 11C17.268 11 11 17.268 11 25C11 32.732 17.268 39 25 39Z" stroke="white" stroke-width="1.5"/>
<path fill-rule="evenodd" clip-rule="evenodd" d="M25.1717 16.3793C22.8399 16.3795 20.6036 17.2914 18.9548 18.9144C17.306 20.5374 16.3796 22.7386 16.3794 25.0339C16.3796 27.3291 17.306 29.5303 18.9548 31.1533C20.6036 32.7763 22.8399 33.6882 25.1717 33.6884C26.3265 33.6887 27.4701 33.465 28.5371 33.0302C29.6041 32.5953 30.5736 31.9579 31.3903 31.1542C32.207 30.3506 32.8549 29.3964 33.2969 28.3463C33.739 27.2961 33.9665 26.1706 33.9666 25.0339C33.9665 23.8971 33.739 22.7716 33.2969 21.7214C32.8549 20.6713 32.207 19.7172 31.3903 18.9135C30.5736 18.1098 29.6041 17.4724 28.5371 17.0376C27.4701 16.6027 26.3265 16.379 25.1717 16.3793ZM27.6936 18.978C28.1086 18.9778 28.5196 19.0581 28.9031 19.2143C29.2866 19.3705 29.635 19.5996 29.9285 19.8884C30.222 20.1773 30.4548 20.5202 30.6136 20.8976C30.7724 21.275 30.8541 21.6795 30.854 22.0881C30.8535 22.9126 30.5202 23.7032 29.9275 24.2859C29.3349 24.8686 28.5313 25.1958 27.6936 25.1954C26.8564 25.1951 26.0536 24.8676 25.4615 24.285C24.8694 23.7023 24.5365 22.9121 24.536 22.0881C24.5358 21.2635 24.8683 20.4726 25.4605 19.8894C26.0527 19.3061 26.8559 18.9783 27.6936 18.978Z" fill="white"/>
<path d="M35.0744 17.955C36.819 17.955 38.2333 16.5628 38.2333 14.8456C38.2333 13.1283 36.819 11.7362 35.0744 11.7362C33.3298 11.7362 31.9155 13.1283 31.9155 14.8456C31.9155 16.5628 33.3298 17.955 35.0744 17.955Z" fill="white"/>
</g>
<defs>
<clipPath id="clip0_5_241">
<rect width="50" height="50" fill="white"/>
</clipPath>
</defs>
</svg>
