<svg width="50" height="50" viewBox="0 0 50 50" fill="none" xmlns="http://www.w3.org/2000/svg">
<g clip-path="url(#clip0_5_257)">
<path d="M45 0H5C2.23858 0 0 2.23858 0 5V45C0 47.7614 2.23858 50 5 50H45C47.7614 50 50 47.7614 50 45V5C50 2.23858 47.7614 0 45 0Z" fill="#4479A1"/>
<path d="M16.6933 34.0421H15.4586C15.4149 31.9323 15.2947 29.9488 15.0981 28.0901H15.0871L13.2072 34.0421H12.2671L10.3984 28.0901H10.3877C10.2491 29.8746 10.1617 31.8586 10.1255 34.0421H9C9.07253 31.3869 9.25482 28.8976 9.54615 26.574H11.0765L12.8576 32.0615H12.8686L14.6607 26.574H16.125C16.4457 29.2956 16.6351 31.7852 16.6933 34.0421ZM22.0482 28.5321C21.5455 31.2939 20.8822 33.3006 20.059 34.5532C19.4177 35.5174 18.715 36 17.9498 36C17.7458 36 17.4941 35.9377 17.1958 35.814V35.1481C17.3416 35.1694 17.5127 35.1814 17.7093 35.1814C18.0667 35.1814 18.354 35.0819 18.573 34.8824C18.835 34.6394 18.966 34.3663 18.966 34.0641C18.966 33.8568 18.8639 33.4332 18.6601 32.7917L17.3051 28.5319H18.5181L19.4907 31.7178C19.7092 32.4412 19.8004 32.9462 19.7639 33.2339C20.2957 31.796 20.6672 30.2282 20.8788 28.5316H22.0482V28.5321Z" fill="white"/>
<path d="M38.4838 34.0421H34.9764V26.574H36.1563V33.1228H38.4838V34.0421ZM34.0583 34.2226L32.7021 33.545C32.8224 33.4451 32.9374 33.3368 33.0409 33.2115C33.6174 32.526 33.9049 31.5123 33.9049 30.1695C33.9049 27.6988 32.9471 26.4629 31.031 26.4629C30.0914 26.4629 29.3584 26.7764 28.8342 27.4037C28.2582 28.0897 27.9707 29.0998 27.9707 30.4352C27.9707 31.748 28.2255 32.711 28.7354 33.3219C29.2019 33.8752 29.905 34.1523 30.8453 34.1523C31.1961 34.1523 31.5179 34.1088 31.8112 34.0211L33.5768 35.0617L34.0583 34.2226ZM29.665 32.5477C29.3663 32.0613 29.2169 31.2801 29.2169 30.2031C29.2169 28.3227 29.7812 27.3815 30.9109 27.3815C31.5015 27.3815 31.9343 27.6066 32.2111 28.0558C32.5093 28.543 32.6594 29.3172 32.6594 30.3792C32.6594 32.275 32.0946 33.2231 30.9656 33.2231C30.3748 33.2233 29.942 32.9989 29.665 32.5477ZM27.4565 31.9721C27.4565 32.6055 27.227 33.125 26.7684 33.532C26.3094 33.9373 25.6938 34.1404 24.9224 34.1404C24.2009 34.1404 23.5013 33.9071 22.8242 33.4429L23.1413 32.8016C23.7239 33.097 24.2514 33.2438 24.7251 33.2438C25.1696 33.2438 25.517 33.1441 25.7689 32.9463C26.0206 32.7477 26.1707 32.4692 26.1707 32.1171C26.1707 31.6734 25.8651 31.2941 25.3044 30.9765C24.7873 30.6891 23.7533 30.0881 23.7533 30.0881C23.1928 29.6746 22.9122 29.2307 22.9122 28.4993C22.9122 27.894 23.1214 27.4054 23.5402 27.0336C23.9594 26.6605 24.5003 26.4745 25.1634 26.4745C25.8481 26.4745 26.4706 26.6602 27.0313 27.0278L26.7469 27.6694C26.2674 27.4631 25.794 27.36 25.327 27.36C24.9489 27.36 24.6568 27.452 24.4538 27.6368C24.2491 27.8208 24.1228 28.0563 24.1228 28.3452C24.1228 28.7867 24.4349 29.1708 25.0109 29.4947C25.5349 29.7826 26.5947 30.3939 26.5947 30.3939C27.1695 30.8067 27.4565 31.2466 27.4565 31.9721Z" fill="#F8981D"/>
<path d="M39.965 24.0727C39.2516 24.0543 38.6992 24.127 38.2356 24.3255C38.1018 24.3797 37.889 24.3797 37.8704 24.5509C37.9426 24.6234 37.951 24.7403 38.0138 24.8403C38.1206 25.0207 38.307 25.2634 38.4771 25.39C38.6639 25.5349 38.8515 25.6784 39.0481 25.8047C39.3948 26.0219 39.7877 26.1482 40.1256 26.3646C40.3224 26.4905 40.5181 26.6533 40.7152 26.7888C40.812 26.861 40.8741 26.9781 40.9998 27.0233V26.9958C40.9368 26.9146 40.9189 26.7972 40.8571 26.7069L40.5894 26.4455C40.3308 26.0939 40.0094 25.7869 39.6627 25.5347C39.3773 25.3357 38.7532 25.0651 38.6374 24.7323L38.6193 24.7139C38.8154 24.6953 39.0481 24.6234 39.2344 24.5681C39.5377 24.4871 39.8142 24.5055 40.1253 24.4246C40.2685 24.3883 40.4105 24.3429 40.5541 24.2983V24.2169C40.3928 24.0543 40.2778 23.8384 40.1082 23.6847C39.6543 23.2879 39.1542 22.8997 38.6374 22.5749C38.3607 22.394 38.0047 22.2775 37.71 22.1237C37.6038 22.0693 37.4249 22.0425 37.3624 21.9522C37.2025 21.7536 37.1126 21.4923 36.9966 21.2573C36.7389 20.7614 36.4886 20.2112 36.2663 19.6868C36.1054 19.3351 36.0076 18.9839 35.8115 18.6586C34.8929 17.1248 33.8953 16.1958 32.3621 15.284C32.0326 15.0942 31.6406 15.0133 31.2218 14.9137L30.553 14.878C30.4104 14.8147 30.2674 14.643 30.1429 14.5618C29.6342 14.2372 28.3245 13.5336 27.9504 14.4626C27.7094 15.0497 28.3069 15.627 28.5121 15.9248C28.6636 16.1316 28.8599 16.3668 28.9659 16.6016C29.0286 16.755 29.0463 16.9178 29.109 17.0799C29.2517 17.477 29.3851 17.9187 29.5726 18.2893C29.6705 18.4781 29.7771 18.6767 29.9021 18.8477C29.9737 18.9477 30.0983 18.9919 30.1255 19.1549C30.0012 19.3346 29.9914 19.6059 29.92 19.8315C29.5994 20.851 29.7246 22.114 30.1792 22.8633C30.3214 23.0889 30.6606 23.5855 31.1145 23.3951C31.5163 23.2328 31.4273 22.7186 31.5427 22.2676C31.5692 22.1587 31.5518 22.0872 31.6053 22.0157V22.0333C31.7296 22.2858 31.8551 22.529 31.9703 22.7821C32.2468 23.2239 32.7283 23.6843 33.1294 23.9903C33.343 24.1536 33.5121 24.4328 33.7796 24.5325V24.5055H33.7619C33.7078 24.4246 33.6286 24.3883 33.5575 24.3255C33.3966 24.163 33.2187 23.9644 33.0939 23.7843C32.7202 23.2787 32.3895 22.7191 32.096 22.1416C31.9524 21.8614 31.8286 21.5551 31.7129 21.2754C31.6589 21.1674 31.6589 21.0046 31.5695 20.9503C31.4354 21.1486 31.24 21.3203 31.1421 21.5633C30.9725 21.9519 30.9548 22.4299 30.8918 22.927L30.8568 22.9444C30.5728 22.8722 30.4741 22.5749 30.3662 22.3225C30.0992 21.6814 30.0544 20.6525 30.286 19.9129C30.3481 19.7237 30.6165 19.1281 30.5094 18.9479C30.4557 18.7752 30.2772 18.6769 30.1794 18.5409C30.0644 18.3699 29.9384 18.1535 29.8582 17.9637C29.6445 17.4586 29.5368 16.899 29.3066 16.3941C29.199 16.1589 29.0122 15.9154 28.8609 15.6987C28.691 15.4553 28.5042 15.2838 28.3699 14.9951C28.3255 14.8959 28.2632 14.7336 28.3346 14.6256C28.352 14.5531 28.3882 14.5261 28.4593 14.508C28.5748 14.4092 28.9048 14.5348 29.0205 14.5891C29.351 14.7244 29.6273 14.8507 29.9031 15.0401C30.0279 15.1306 30.1617 15.3021 30.3218 15.3473H30.5094C30.794 15.4101 31.1149 15.3647 31.3829 15.4463C31.8551 15.6 32.2829 15.8253 32.6665 16.0685C33.834 16.818 34.7967 17.883 35.4467 19.1549C35.5533 19.3622 35.5987 19.552 35.696 19.7682C35.8838 20.2107 36.1159 20.6619 36.3023 21.095C36.4896 21.5189 36.6681 21.9517 36.9355 22.3039C37.0689 22.4932 37.6048 22.5925 37.8451 22.6918C38.0228 22.7727 38.2996 22.8447 38.4599 22.9439C38.7632 23.1331 39.0653 23.3502 39.3504 23.5582C39.4923 23.6664 39.9385 23.892 39.965 24.0727ZM30.873 16.2313C30.7499 16.23 30.6273 16.2453 30.5082 16.2768V16.2949H30.5254C30.5972 16.4391 30.722 16.5391 30.811 16.6649C30.8828 16.8096 30.9451 16.9531 31.0154 17.0975L31.0326 17.0796C31.1584 16.9895 31.2209 16.8451 31.2209 16.6284C31.1667 16.5647 31.1584 16.5023 31.1133 16.4391C31.0608 16.3487 30.9451 16.3038 30.873 16.2313Z" fill="white"/>
<path d="M40.8142 34.0409H40.9989V33.126H40.7219L40.4959 33.7504L40.2504 33.126H39.9837V34.0409H40.1581V33.3448H40.1679L40.4251 34.0409H40.558L40.8142 33.3448V34.0409ZM39.3266 34.0409H39.522V33.281H39.7778V33.1257H39.0601V33.281H39.3261L39.3266 34.0409Z" fill="#F8981D"/>
</g>
<defs>
<clipPath id="clip0_5_257">
<rect width="50" height="50" fill="white"/>
</clipPath>
</defs>
</svg>
