<svg width="50" height="50" viewBox="0 0 50 50" fill="none" xmlns="http://www.w3.org/2000/svg">
<g clip-path="url(#clip0_5_269)">
<path d="M45 0H5C2.23858 0 0 2.23858 0 5V45C0 47.7614 2.23858 50 5 50H45C47.7614 50 50 47.7614 50 45V5C50 2.23858 47.7614 0 45 0Z" fill="#8CC84B"/>
<path d="M23.9368 8.72496C24.3341 8.50285 24.7816 8.38623 25.2368 8.38623C25.692 8.38623 26.1395 8.50285 26.5368 8.72496C30.4955 10.9617 34.4545 13.198 38.4138 15.434C38.7861 15.646 39.0962 15.9522 39.313 16.3218C39.5297 16.6914 39.6455 17.1115 39.6488 17.54V31.002C39.6411 31.4462 39.5137 31.8802 39.2802 32.2582C39.0467 32.6362 38.7156 32.9443 38.3218 33.15C34.3758 35.3747 30.4308 37.6003 26.4868 39.827C26.082 40.0509 25.6247 40.1622 25.1623 40.1493C24.7 40.1365 24.2495 40 23.8578 39.754C22.6751 39.068 21.4915 38.3837 20.3068 37.701C20.0468 37.5832 19.8137 37.4133 19.6218 37.202C19.7728 37.002 20.0428 36.973 20.2618 36.884C20.7478 36.7101 21.2165 36.4911 21.6618 36.23C21.7179 36.1969 21.7826 36.1813 21.8477 36.1852C21.9127 36.1891 21.9751 36.2124 22.0268 36.252C23.0388 36.832 24.0408 37.429 25.0558 38.003C25.2728 38.128 25.4918 37.962 25.6768 37.859C29.5488 35.6703 33.4221 33.4843 37.2968 31.301C37.3659 31.2665 37.423 31.212 37.4606 31.1446C37.4983 31.0771 37.5147 30.9999 37.5078 30.923C37.5078 26.4837 37.5078 22.0437 37.5078 17.603C37.5148 17.5166 37.4947 17.4302 37.4503 17.3558C37.4058 17.2814 37.3392 17.2227 37.2598 17.188C33.3265 14.9733 29.3951 12.7577 25.4658 10.541C25.3976 10.4943 25.3169 10.4694 25.2343 10.4694C25.1517 10.4694 25.071 10.4943 25.0028 10.541C21.0695 12.757 17.1385 14.9737 13.2098 17.191C13.1301 17.2248 13.0631 17.283 13.0184 17.3571C12.9736 17.4313 12.9535 17.5177 12.9608 17.604C12.9608 22.0433 12.9608 26.4833 12.9608 30.924C12.954 31.0007 12.9708 31.0777 13.0091 31.1446C13.0474 31.2114 13.1052 31.265 13.1748 31.298C14.2241 31.8927 15.2738 32.4857 16.3238 33.077C16.615 33.257 16.9409 33.3735 17.2801 33.419C17.6194 33.4645 17.9645 33.4379 18.2928 33.341C18.5773 33.2337 18.8223 33.0423 18.9951 32.7921C19.1679 32.5419 19.2602 32.245 19.2598 31.941C19.2648 27.527 19.2598 23.113 19.2598 18.7C19.2586 18.6532 19.2674 18.6066 19.2854 18.5634C19.3035 18.5202 19.3306 18.4813 19.3648 18.4493C19.3989 18.4173 19.4395 18.3928 19.4838 18.3776C19.5281 18.3624 19.5751 18.3567 19.6218 18.361C20.1218 18.361 20.6308 18.354 21.1348 18.361C21.1836 18.3633 21.2313 18.3757 21.2749 18.3976C21.3186 18.4194 21.3571 18.4502 21.3881 18.4879C21.4191 18.5256 21.4419 18.5694 21.4549 18.6164C21.468 18.6635 21.471 18.7127 21.4638 18.761C21.4638 23.203 21.4688 27.645 21.4638 32.086C21.4973 32.6894 21.3684 33.2907 21.0905 33.8273C20.8126 34.3639 20.3959 34.8162 19.8838 35.137C19.1994 35.456 18.4501 35.6113 17.6953 35.5906C16.9404 35.5699 16.2008 35.3739 15.5348 35.018C14.3808 34.442 13.2798 33.763 12.1468 33.146C11.7535 32.9408 11.4229 32.6334 11.1897 32.2561C10.9565 31.8787 10.8294 31.4455 10.8218 31.002V17.54C10.8252 17.1025 10.9457 16.674 11.1708 16.2989C11.3959 15.9238 11.7174 15.6158 12.1018 15.407C16.0485 13.181 19.9935 10.9537 23.9368 8.72496Z" fill="#E6E6E6"/>
<path d="M27.378 18.048C29.1213 17.8223 30.8928 18.0934 32.4889 18.83C33.0673 19.175 33.5456 19.6651 33.8762 20.2519C34.2069 20.8386 34.3785 21.5015 34.374 22.175C34.3515 22.2592 34.2994 22.3325 34.2272 22.3814C34.155 22.4302 34.0676 22.4514 33.981 22.441C33.481 22.441 32.981 22.448 32.481 22.441C32.3851 22.4348 32.2949 22.393 32.2281 22.3239C32.1613 22.2547 32.1228 22.1631 32.12 22.067C32.0634 21.7408 31.9366 21.4309 31.7482 21.1588C31.5598 20.8866 31.3143 20.6587 31.029 20.491C30.0795 20.1139 29.0541 19.9673 28.037 20.063C27.2875 20.0395 26.5461 20.224 25.895 20.596C25.6708 20.7698 25.5067 21.0096 25.4258 21.2815C25.3449 21.5534 25.3513 21.8439 25.444 22.112C25.604 22.493 26.044 22.612 26.404 22.729C28.478 23.271 30.675 23.217 32.709 23.929C33.1458 24.0502 33.549 24.2699 33.8877 24.5712C34.2264 24.8724 34.4915 25.2473 34.6629 25.667C34.8669 26.2625 34.9162 26.9 34.8061 27.5197C34.6961 28.1395 34.4305 28.7211 34.034 29.21C33.3168 29.9544 32.3852 30.4564 31.369 30.646C30.0454 30.9148 28.6876 30.9725 27.346 30.817C26.0584 30.7436 24.8238 30.2793 23.807 29.486C23.4036 29.1163 23.0868 28.6621 22.8793 28.1557C22.6719 27.6494 22.5789 27.1034 22.607 26.557C22.6161 26.4686 22.6598 26.3875 22.7286 26.3312C22.7974 26.275 22.8856 26.2483 22.974 26.257C23.474 26.257 23.979 26.252 24.482 26.257C24.5286 26.2559 24.5749 26.2641 24.6182 26.2811C24.6616 26.298 24.7012 26.3234 24.7347 26.3558C24.7682 26.3882 24.7949 26.4269 24.8133 26.4696C24.8317 26.5124 24.8415 26.5584 24.842 26.605C24.8671 26.9155 24.9555 27.2177 25.1016 27.4928C25.2478 27.768 25.4487 28.0103 25.692 28.205C26.7686 28.7347 27.9717 28.9536 29.166 28.837C30.1656 28.9121 31.1631 28.6669 32.014 28.137C32.2096 27.9458 32.3519 27.7068 32.4269 27.4438C32.502 27.1807 32.5072 26.9026 32.442 26.637C32.32 26.193 31.855 25.986 31.456 25.851C29.409 25.203 27.187 25.438 25.156 24.706C24.7307 24.5816 24.3375 24.3664 24.0035 24.0753C23.6694 23.7843 23.4024 23.4242 23.221 23.02C22.988 22.4166 22.9292 21.7598 23.0512 21.1246C23.1732 20.4894 23.4711 19.9012 23.911 19.427C24.8694 18.581 26.0897 18.0905 27.367 18.038L27.378 18.048Z" fill="#E6E6E6"/>
</g>
<defs>
<clipPath id="clip0_5_269">
<rect width="50" height="50" fill="white"/>
</clipPath>
</defs>
</svg>
