<svg width="50" height="50" viewBox="0 0 50 50" fill="none" xmlns="http://www.w3.org/2000/svg">
<g clip-path="url(#clip0_106_187)">
<path d="M45 0H5C2.23858 0 0 2.23858 0 5V45C0 47.7614 2.23858 50 5 50H45C47.7614 50 50 47.7614 50 45V5C50 2.23858 47.7614 0 45 0Z" fill="white"/>
<path d="M7.36719 6.616H42.8302V41.816H7.36719V6.616Z" fill="white"/>
<path d="M40.6278 21.7332C41.0372 20.522 41.1794 19.2366 41.0448 17.9652C40.9102 16.6939 40.5018 15.4667 39.8478 14.3682C38.8713 12.6953 37.3892 11.3755 35.6148 10.5987C33.8323 9.81592 31.8493 9.61184 29.9448 10.0152C29.0831 9.05814 28.0278 8.29527 26.8488 7.77719C25.6644 7.25659 24.3835 6.99182 23.0898 7.00019C21.1457 6.99432 19.2489 7.5993 17.6673 8.72969C16.0962 9.85218 14.9239 11.4464 14.3208 13.2807C13.0541 13.5358 11.8559 14.0562 10.8048 14.8077C9.75924 15.5552 8.8857 16.5178 8.24278 17.6307C7.26473 19.2899 6.84664 21.2199 7.05032 23.1351C7.254 25.0504 8.06864 26.8493 9.37378 28.2657C8.96425 29.4771 8.82192 30.7628 8.95656 32.0344C9.09121 33.306 9.49964 34.5334 10.1538 35.6322C11.1299 37.3048 12.6115 38.6246 14.3853 39.4017C16.1677 40.1844 18.1508 40.3884 20.0553 39.9852C20.9174 40.9423 21.9733 41.7052 23.1528 42.2232C24.3367 42.7435 25.6171 43.0083 26.9103 43.0002C28.8555 43.0063 30.7535 42.4007 32.3358 41.2692C33.9077 40.1465 35.0805 38.5517 35.6838 36.7167C36.9499 36.4614 38.1477 35.941 39.1983 35.1897C40.2445 34.4418 41.1186 33.4788 41.7618 32.3652C42.7387 30.706 43.1559 28.7764 42.9517 26.8618C42.7475 24.9472 41.9327 23.1491 40.6278 21.7332ZM26.9133 40.6467C25.3174 40.6505 23.77 40.099 22.5363 39.0867C22.5918 39.0567 22.6893 39.0027 22.7523 38.9652L30.0183 34.8252C30.1988 34.7229 30.349 34.5747 30.4536 34.3955C30.5582 34.2163 30.6134 34.0127 30.6138 33.8052V23.6982L33.6858 25.4502C33.7018 25.4579 33.7157 25.4695 33.7261 25.4839C33.7366 25.4983 33.7433 25.5151 33.7458 25.5327V33.9027C33.7435 34.7897 33.5653 35.6675 33.2216 36.4852C32.8779 37.3029 32.3754 38.0444 31.7433 38.6667C30.4557 39.9345 28.7218 40.646 26.9148 40.6482L26.9133 40.6467ZM12.2238 34.4562C11.4232 33.094 11.1339 31.4913 11.4078 29.9352C11.4618 29.9667 11.5563 30.0252 11.6238 30.0627L18.8883 34.2027C19.0696 34.3072 19.2752 34.3622 19.4845 34.3622C19.6938 34.3622 19.8994 34.3072 20.0808 34.2027L28.9503 29.1492V32.6502C28.9515 32.6681 28.9481 32.686 28.9405 32.7023C28.9329 32.7185 28.9213 32.7326 28.9068 32.7432L21.5628 36.9252C19.9879 37.8181 18.126 38.0588 16.3758 37.5957C14.6318 37.1379 13.1394 36.0094 12.2238 34.4562ZM10.3128 18.8082C11.1159 17.4361 12.3751 16.3893 13.8708 15.8502L13.8678 16.0962V24.3762C13.8657 24.5841 13.92 24.7887 14.0249 24.9683C14.1297 25.1479 14.2812 25.2958 14.4633 25.3962L23.3328 30.4497L20.2623 32.1987C20.247 32.2084 20.2296 32.2143 20.2116 32.2159C20.1936 32.2174 20.1755 32.2146 20.1588 32.2077L12.8148 28.0197C12.0415 27.5798 11.3626 26.9916 10.8169 26.2889C10.2712 25.5862 9.86953 24.7828 9.63478 23.9247C9.40252 23.0695 9.34285 22.1767 9.45925 21.2983C9.57566 20.4198 9.86581 19.5733 10.3128 18.8082ZM35.5398 24.5997L26.6703 19.5477L29.7408 17.7987C29.7562 17.7886 29.7738 17.7825 29.7921 17.7809C29.8105 17.7794 29.8289 17.7824 29.8458 17.7897L37.1898 21.9732C38.3116 22.611 39.2284 23.5554 39.8328 24.6957C40.4334 25.8307 40.6937 27.1149 40.5824 28.3941C40.4712 29.6734 39.9932 30.8934 39.2058 31.9077C38.414 32.9305 37.3482 33.7076 36.1323 34.1487V25.6197C36.1348 25.412 36.081 25.2076 35.9767 25.028C35.8724 24.8484 35.7214 24.7004 35.5398 24.5997ZM38.5968 20.0622C38.5253 20.0188 38.4533 19.9763 38.3808 19.9347L31.1163 15.7947C30.9347 15.69 30.7288 15.635 30.5193 15.635C30.3097 15.635 30.1038 15.69 29.9223 15.7947L21.0528 20.8452V17.3502C21.0519 17.3322 21.0556 17.3142 21.0634 17.298C21.0713 17.2817 21.0831 17.2677 21.0978 17.2572L28.4403 13.0767C29.5678 12.4358 30.8528 12.125 32.1486 12.1799C33.4444 12.2349 34.6985 12.6532 35.7678 13.3872C36.8302 14.1163 37.6624 15.1337 38.1663 16.3197C38.6658 17.5017 38.8158 18.7992 38.5968 20.0622ZM19.3833 26.2977L16.3128 24.5502C16.2965 24.5424 16.2824 24.5306 16.2719 24.5159C16.2614 24.5013 16.2548 24.4841 16.2528 24.4662V16.0962C16.2528 14.8152 16.6248 13.5612 17.3223 12.4782C18.0236 11.3939 19.0188 10.5314 20.1918 9.99119C21.3692 9.4483 22.6755 9.24708 23.9617 9.41044C25.248 9.57381 26.4624 10.0952 27.4668 10.9152C27.4113 10.9452 27.3138 10.9977 27.2508 11.0352L19.9863 15.1782C19.8054 15.2802 19.6548 15.4283 19.5499 15.6075C19.445 15.7867 19.3896 15.9905 19.3893 16.1982L19.3833 26.2992V26.2977ZM21.0513 22.7502L25.0023 20.5002L28.9518 22.7502V27.2502L25.0023 29.5002L21.0513 27.2502V22.7502Z" fill="black"/>
</g>
<defs>
<clipPath id="clip0_106_187">
<rect width="50" height="50" fill="white"/>
</clipPath>
</defs>
</svg>
