<svg width="50" height="50" viewBox="0 0 50 50" fill="none" xmlns="http://www.w3.org/2000/svg">
<g clip-path="url(#clip0_5_299)">
<path d="M45 0H5C2.23858 0 0 2.23858 0 5V45C0 47.7614 2.23858 50 5 50H45C47.7614 50 50 47.7614 50 45V5C50 2.23858 47.7614 0 45 0Z" fill="#777BB3"/>
<path d="M13.8935 27.2392C14.9231 27.2392 15.6917 27.058 16.1781 26.7009C16.6592 26.3474 16.9915 25.735 17.1657 24.8808C17.3281 24.0824 17.2662 23.5248 16.9819 23.224C16.6911 22.9167 16.0625 22.7608 15.1136 22.7608H13.4682L12.556 27.2392H13.8935ZM8.51181 32.7557C8.43543 32.7557 8.36289 32.7232 8.31433 32.6668C8.26569 32.6106 8.24598 32.5365 8.26057 32.4649L10.678 20.5971C10.7014 20.4824 10.8068 20.3995 10.9293 20.3995H16.1396C17.7771 20.3995 18.9959 20.8237 19.762 21.6605C20.5322 22.5017 20.77 23.6776 20.4688 25.1554C20.3463 25.7574 20.1355 26.3166 19.8424 26.8172C19.5489 27.3183 19.161 27.7821 18.6893 28.1957C18.1247 28.6999 17.4857 29.0655 16.7918 29.2806C16.1088 29.4929 15.2317 29.6005 14.1848 29.6005H12.0751L11.4726 32.558C11.4492 32.6728 11.3439 32.7557 11.2214 32.7557H8.51181Z" fill="black"/>
<path d="M13.6794 23.0051H15.1138C16.2591 23.0051 16.657 23.2449 16.7921 23.3878C17.0164 23.6251 17.0587 24.1253 16.9146 24.8345C16.7526 25.6284 16.4524 26.1912 16.0221 26.5073C15.5816 26.8309 14.8655 26.9949 13.8937 26.9949H12.8667L13.6794 23.0051ZM16.1398 20.1552H10.9295C10.6844 20.1552 10.4737 20.321 10.4269 20.5505L8.00942 32.4183C7.98023 32.5615 8.01966 32.7096 8.11686 32.8222C8.21415 32.9349 8.35905 33 8.51198 33H11.2215C11.4667 33 11.6774 32.8342 11.7241 32.6047L12.2863 29.8448H14.185C15.2588 29.8448 16.1627 29.7331 16.8714 29.5128C17.6003 29.2869 18.2709 28.9038 18.8644 28.3742C19.3553 27.9433 19.7596 27.4596 20.066 26.9364C20.3725 26.4131 20.5926 25.8296 20.7204 25.2019C21.0374 23.6464 20.7799 22.4008 19.955 21.4999C19.1381 20.6076 17.8544 20.1552 16.1398 20.1552ZM12.2456 27.4835H13.8937C14.9861 27.4835 15.7998 27.2871 16.3345 26.8944C16.8692 26.5016 17.2298 25.8461 17.4173 24.9275C17.5966 24.0455 17.5149 23.423 17.1722 23.0605C16.8292 22.6979 16.1431 22.5165 15.1138 22.5165H13.2573L12.2456 27.4835ZM16.1398 20.6438C17.7072 20.6438 18.8507 21.0362 19.5694 21.8213C20.2881 22.6063 20.5045 23.702 20.2177 25.1088C20.0997 25.6883 19.9001 26.2181 19.6191 26.6981C19.3377 27.1784 18.9703 27.6176 18.5163 28.0159C17.9753 28.499 17.3742 28.8433 16.7129 29.0483C16.0515 29.2539 15.2091 29.3562 14.185 29.3562H11.8642L11.2215 32.5115H8.51198L10.9295 20.6438H16.1398Z" fill="white"/>
<path d="M26.6816 29.6006C26.6051 29.6006 26.5327 29.568 26.4841 29.5117C26.4354 29.4554 26.4157 29.3814 26.4303 29.3097L27.4996 24.0587C27.6014 23.5593 27.5763 23.2009 27.4291 23.0495C27.339 22.9569 27.0683 22.8016 26.2679 22.8016H24.3305L22.986 29.4029C22.9626 29.5177 22.8572 29.6006 22.7347 29.6006H20.0465C19.97 29.6006 19.8976 29.568 19.8489 29.5117C19.8003 29.4554 19.7806 29.3813 19.7952 29.3097L22.2127 17.442C22.236 17.3272 22.3414 17.2444 22.464 17.2444H25.1521C25.2286 17.2444 25.3011 17.2769 25.3497 17.3332C25.3983 17.3895 25.4181 17.4635 25.4035 17.5352L24.8201 20.3996H26.9042C28.492 20.3996 29.5686 20.6666 30.1957 21.2161C30.8349 21.7766 31.0343 22.6729 30.7885 23.8802L29.6638 29.4029C29.6404 29.5177 29.5351 29.6006 29.4124 29.6006H26.6816Z" fill="black"/>
<path d="M25.1524 17.0001H22.4642C22.219 17.0001 22.0083 17.1658 21.9615 17.3954L19.5441 29.2631C19.5149 29.4064 19.5543 29.5545 19.6516 29.6671C19.7489 29.7797 19.8938 29.8448 20.0467 29.8448H22.7349C22.98 29.8448 23.1908 29.6791 23.2375 29.4495L24.5418 23.0459H26.2681C27.0671 23.0459 27.2348 23.2087 27.2415 23.2157C27.29 23.2655 27.3537 23.4959 27.2485 24.0121L26.1791 29.2631C26.15 29.4064 26.1894 29.5545 26.2867 29.6671C26.384 29.7797 26.5289 29.8448 26.6818 29.8448H29.4126C29.6577 29.8448 29.8685 29.6791 29.9153 29.4495L31.04 23.9269C31.3039 22.6305 31.0781 21.6581 30.3691 21.0363C29.6925 20.4434 28.5592 20.1553 26.9044 20.1553H25.1308L25.655 17.5818C25.6841 17.4386 25.6448 17.2904 25.5475 17.1779C25.4502 17.0653 25.3053 17.0001 25.1524 17.0001ZM25.1524 17.4886L24.5097 20.6438H26.9044C28.4113 20.6438 29.4506 20.8948 30.0226 21.396C30.5947 21.8976 30.766 22.7103 30.5374 23.8337L29.4126 29.3563H26.6818L27.7512 24.1054C27.8729 23.508 27.8281 23.1006 27.6168 22.8833C27.4055 22.6661 26.9558 22.5573 26.2681 22.5573H24.1196L22.7349 29.3563H20.0467L22.4642 17.4886H25.1524Z" fill="white"/>
<path d="M35.042 27.2392C36.0716 27.2392 36.8402 27.058 37.3266 26.7009C37.8077 26.3475 38.14 25.7351 38.3143 24.8808C38.4767 24.0824 38.4148 23.5248 38.1304 23.224C37.8396 22.9167 37.211 22.7608 36.262 22.7608H34.6166L33.7044 27.2392H35.042ZM29.6603 32.7557C29.5839 32.7557 29.5114 32.7232 29.4628 32.6668C29.4142 32.6106 29.3944 32.5365 29.409 32.4649L31.8265 20.5971C31.8499 20.4824 31.9552 20.3995 32.0779 20.3995H37.2881C38.9256 20.3995 40.1444 20.8237 40.9105 21.6605C41.6807 22.5017 41.9185 23.6775 41.6174 25.1554C41.4947 25.7574 41.284 26.3166 40.9908 26.8172C40.6974 27.3183 40.3095 27.7821 39.8378 28.1957C39.2732 28.6999 38.6342 29.0655 37.9402 29.2806C37.2573 29.4929 36.3802 29.6005 35.3333 29.6005H33.2235L32.6212 32.558C32.5978 32.6728 32.4925 32.7557 32.3698 32.7557H29.6603Z" fill="black"/>
<path d="M34.8278 23.0051H36.2622C37.4075 23.0051 37.8053 23.2449 37.9405 23.3878C38.1649 23.6251 38.2072 24.1253 38.063 24.8344C37.901 25.6284 37.6007 26.1912 37.1705 26.5073C36.73 26.8309 36.0138 26.9949 35.0421 26.9949H34.0152L34.8278 23.0051ZM37.2882 20.1552H32.0779C31.8328 20.1552 31.6221 20.321 31.5754 20.5505L29.1579 32.4183C29.1287 32.5615 29.1681 32.7096 29.2653 32.8222C29.3626 32.9349 29.5075 33 29.6604 33H32.3699C32.615 33 32.8258 32.8342 32.8726 32.6047L33.4347 29.8448H35.3334C36.4072 29.8448 37.3111 29.7331 38.0198 29.5128C38.7487 29.2869 39.4194 28.9037 40.013 28.374C40.5038 27.9432 40.908 27.4596 41.2144 26.9364C41.5208 26.4131 41.741 25.8296 41.8688 25.2019C42.1858 23.6463 41.9282 22.4007 41.1033 21.4998C40.2865 20.6076 39.0029 20.1552 37.2882 20.1552ZM33.394 27.4835H35.0421C36.1345 27.4835 36.9482 27.2871 37.4828 26.8944C38.0177 26.5016 38.3782 25.8461 38.5656 24.9275C38.745 24.0455 38.6633 23.423 38.3206 23.0605C37.9776 22.6979 37.2915 22.5165 36.2622 22.5165H34.4057L33.394 27.4835ZM37.2882 20.6438C38.8556 20.6438 39.9991 21.0362 40.7178 21.8213C41.4365 22.6063 41.6528 23.702 41.3661 25.1088C41.2481 25.6883 41.0485 26.2181 40.7675 26.6981C40.4861 27.1784 40.1187 27.6176 39.6647 28.0159C39.1237 28.499 38.5226 28.8433 37.8612 29.0483C37.1999 29.2539 36.3575 29.3562 35.3334 29.3562H33.0125L32.3699 32.5115H29.6604L32.0779 20.6438H37.2882Z" fill="white"/>
</g>
<defs>
<clipPath id="clip0_5_299">
<rect width="50" height="50" fill="white"/>
</clipPath>
</defs>
</svg>
