<svg width="50" height="50" viewBox="0 0 50 50" fill="none" xmlns="http://www.w3.org/2000/svg">
<g clip-path="url(#clip0_5_313)">
<path d="M45 0H5C2.23858 0 0 2.23858 0 5V45C0 47.7614 2.23858 50 5 50H45C47.7614 50 50 47.7614 50 45V5C50 2.23858 47.7614 0 45 0Z" fill="#2B5B84"/>
<path d="M21.5754 9.0001C19.0473 9.0001 17.0002 11.0472 17.0002 13.5753V16.2629H23.863C24.4871 16.2629 25.0006 17.1765 25.0006 17.8005H13.5752C11.0471 17.8005 9 19.8476 9 22.3757V28.4258C9 30.9539 11.0471 33.001 13.5752 33.001H15.4628V28.7134C15.4628 26.1853 17.4974 24.1382 20.0255 24.1382H28.4258C30.9539 24.1382 33.001 22.1035 33.001 19.5754V13.5752C33.001 11.0471 30.9539 9 28.4258 9L21.5754 9.0001ZM20.4254 11.5752C21.0654 11.5752 21.5754 11.7687 21.5754 12.7128C21.5754 13.6568 21.0654 14.1378 20.4254 14.1378C19.8014 14.1378 19.2878 13.6568 19.2878 12.7128C19.2878 11.7687 19.8014 11.5752 20.4254 11.5752Z" fill="#3C78AA"/>
<path d="M34.5346 16.999V21.2867C34.5346 23.8148 32.5031 25.8619 29.975 25.8619H21.5747C19.0466 25.8619 16.9995 27.8933 16.9995 30.4214V36.4217C16.9993 37.0227 17.1174 37.6179 17.3472 38.1733C17.577 38.7287 17.9139 39.2334 18.3388 39.6585C18.7636 40.0836 19.2681 40.4209 19.8233 40.6511C20.3786 40.8813 20.9737 40.9998 21.5747 40.9999H28.4249C29.026 40.9998 29.6211 40.8813 30.1763 40.6511C30.7316 40.4209 31.236 40.0836 31.6609 39.6585C32.0857 39.2334 32.4227 38.7287 32.6525 38.1733C32.8823 37.6179 33.0004 37.0227 33.0001 36.4217V33.734H26.1343C25.5102 33.734 24.9999 32.8236 24.9999 32.1996H36.4252C37.0263 32.1995 37.6214 32.081 38.1766 31.8508C38.7319 31.6206 39.2363 31.2834 39.6612 30.8582C40.0861 30.4331 40.423 29.9284 40.6528 29.373C40.8826 28.8176 41.0007 28.2224 41.0004 27.6214V21.5743C41.0002 20.3609 40.5181 19.1973 39.6601 18.3394C38.8022 17.4814 37.6386 16.9993 36.4252 16.9991L34.5346 16.999ZM19.1121 24.2212L19.1059 24.2274C19.125 24.2236 19.146 24.2249 19.1652 24.2212H19.1121ZM29.575 35.8623C30.1991 35.8623 30.7126 36.3433 30.7126 37.2873C30.7121 37.5886 30.5921 37.8774 30.3787 38.0901C30.1654 38.3028 29.8763 38.4221 29.575 38.4217C28.935 38.4217 28.425 38.2314 28.425 37.2873C28.425 36.3433 28.935 35.8623 29.575 35.8623Z" fill="#FDD835"/>
</g>
<defs>
<clipPath id="clip0_5_313">
<rect width="50" height="50" fill="white"/>
</clipPath>
</defs>
</svg>
