<svg width="50" height="50" viewBox="0 0 50 50" fill="none" xmlns="http://www.w3.org/2000/svg">
<g clip-path="url(#clip0_5_323)">
<path d="M45 0H5C2.23858 0 0 2.23858 0 5V45C0 47.7614 2.23858 50 5 50H45C47.7614 50 50 47.7614 50 45V5C50 2.23858 47.7614 0 45 0Z" fill="#61DAFB"/>
<path d="M26.0669 37.696C25.7529 37.423 25.4239 37.15 25.1099 36.847C24.8589 37.074 24.6239 37.286 24.3729 37.499C21.2669 40.121 18.0669 41.212 16.1729 40.151C14.3379 39.136 13.7539 36.135 14.4909 32.362C14.5696 31.9527 14.6636 31.5433 14.7729 31.134C14.4439 31.043 14.1299 30.952 13.8159 30.846C9.91089 29.544 7.33789 27.423 7.33789 25.301C7.33789 23.256 9.73789 21.27 13.4869 20.001C13.9109 19.865 14.3499 19.728 14.8049 19.607C14.6949 19.213 14.6169 18.834 14.5379 18.47C13.7539 14.633 14.3029 11.573 16.1539 10.542C18.0829 9.45097 21.2839 10.618 24.4989 13.36C24.6869 13.527 24.8759 13.709 25.0789 13.89C25.3789 13.618 25.6589 13.345 25.9579 13.102C29.0009 10.542 32.0289 9.46597 33.8789 10.497C35.8079 11.557 36.3729 14.831 35.5099 18.876C35.4629 19.134 35.3999 19.376 35.3379 19.634C35.7299 19.74 36.1219 19.861 36.4829 19.983C40.3109 21.256 42.7889 23.241 42.7579 25.332C42.7579 27.469 40.1069 29.575 36.0439 30.878C35.8239 30.939 35.6049 31.014 35.3849 31.078C35.4789 31.378 35.5419 31.684 35.6049 31.987C36.4209 35.912 35.7929 39.124 33.8949 40.187C33.3881 40.461 32.8189 40.5988 32.2429 40.587C30.5009 40.58 28.2919 39.543 26.0669 37.696ZM29.1379 32.135C28.2306 33.4112 27.2401 34.6262 26.1729 35.772C26.4729 36.06 26.7729 36.318 27.0669 36.56C29.6549 38.712 32.0389 39.515 33.1529 38.893C33.4848 38.6411 33.7598 38.322 33.9599 37.9565C34.1599 37.591 34.2806 37.1873 34.3139 36.772C34.5408 35.2685 34.4769 33.7354 34.1259 32.256C34.0789 31.983 34.0159 31.711 33.9379 31.423C32.3541 31.7588 30.751 31.9966 29.1379 32.135ZM15.9929 32.62C15.3499 35.847 15.8209 38.257 16.9339 38.878C17.3322 39.0285 17.7566 39.0979 18.1821 39.0823C18.6076 39.0667 19.0257 38.9663 19.4119 38.787C20.8695 38.237 22.2145 37.4257 23.3809 36.393C23.6159 36.211 23.8359 35.999 24.0709 35.787C22.9803 34.6406 21.9639 33.4258 21.0279 32.15C19.4208 32.028 17.823 31.8052 16.2439 31.483C16.1539 31.877 16.0759 32.256 15.9969 32.62H15.9929ZM25.1219 34.741C25.8119 33.998 26.5019 33.18 27.1929 32.271C26.5029 32.301 25.7809 32.316 25.0599 32.316C24.3389 32.316 23.6599 32.301 22.9889 32.271C23.6588 33.1302 24.372 33.9546 25.1259 34.741H25.1219ZM21.8319 19.952C21.2319 20.785 20.6559 21.664 20.1069 22.589C19.5579 23.498 19.0559 24.423 18.6009 25.347C19.0719 26.256 19.5739 27.181 20.1229 28.12C20.6719 29.029 21.2529 29.92 21.8489 30.771C22.8839 30.832 23.9669 30.862 25.0649 30.862C26.1789 30.862 27.2649 30.832 28.3119 30.756C28.8769 29.923 29.4569 29.029 30.0059 28.104C30.5549 27.179 31.0719 26.24 31.5269 25.331C31.0719 24.437 30.5539 23.513 30.0059 22.588C29.4579 21.663 28.8769 20.788 28.2959 19.951C27.2449 19.875 26.1619 19.829 25.0649 19.829C23.9679 19.829 22.8829 19.876 21.8319 19.952ZM16.6559 30.089C17.7343 30.3116 18.8234 30.4785 19.9189 30.589C19.5419 30.013 19.1659 29.437 18.8049 28.831C18.4599 28.24 18.1149 27.649 17.8049 27.058C17.3678 28.047 16.9843 29.0588 16.6559 30.089ZM31.3219 28.816C30.9609 29.422 30.5999 29.998 30.2399 30.559C31.3517 30.4331 32.4564 30.2512 33.5499 30.014C33.2079 28.9877 32.8099 27.9808 32.3579 26.998C32.0286 27.6053 31.6832 28.2113 31.3219 28.816ZM13.9729 21.392C10.7729 22.483 8.84389 24.074 8.84389 25.316C8.91101 25.7271 9.06272 26.1198 9.28941 26.4692C9.51611 26.8186 9.81286 27.1172 10.1609 27.346C11.4069 28.2893 12.8083 29.0071 14.3019 29.467C14.5839 29.558 14.8819 29.634 15.1799 29.725C15.6644 28.2286 16.2463 26.7654 16.9219 25.345C16.2451 23.9483 15.6683 22.5054 15.1959 21.027C14.7732 21.1337 14.3656 21.2553 13.9729 21.392ZM33.2199 25.316C33.9146 26.718 34.512 28.1661 35.0079 29.65C35.2079 29.59 35.4159 29.529 35.6079 29.468C39.1079 28.347 41.2709 26.635 41.2869 25.301C41.2869 24.059 39.2789 22.452 35.9999 21.361C35.6709 21.255 35.3099 21.149 34.9489 21.043C34.4693 22.5046 33.8917 23.9322 33.2199 25.316ZM31.3059 21.831C31.6669 22.437 32.0119 23.031 32.3249 23.619C32.7592 22.6571 33.1362 21.6704 33.4539 20.664C32.4339 20.437 31.3539 20.255 30.2229 20.119C30.6009 20.679 30.9619 21.24 31.3069 21.831H31.3059ZM16.6709 20.649C16.9849 21.618 17.3609 22.604 17.8009 23.619C18.1149 23.028 18.4599 22.437 18.8009 21.846C19.1419 21.255 19.5069 20.679 19.8829 20.119C18.7579 20.255 17.6909 20.437 16.6709 20.649ZM26.9459 14.209C26.6789 14.436 26.4119 14.679 26.1459 14.921C27.2295 16.0509 28.232 17.2559 29.1459 18.527C30.7391 18.6658 32.3214 18.9087 33.8829 19.254C33.9459 19.027 33.9929 18.799 34.0399 18.572C34.7769 15.087 34.3229 12.42 33.1299 11.754C32.8638 11.6204 32.5685 11.5554 32.2709 11.565C30.9859 11.566 29.0199 12.47 26.9459 14.209ZM16.9069 11.8C15.7929 12.421 15.3539 14.909 16.0129 18.179C16.0909 18.528 16.1699 18.879 16.2639 19.239C17.8271 18.9064 19.409 18.6686 21.0009 18.527C21.917 17.2543 22.9236 16.0491 24.0129 14.921C23.8409 14.754 23.6519 14.603 23.4799 14.451C21.2939 12.58 19.1979 11.592 17.8279 11.592C17.5082 11.5815 17.1911 11.6532 16.9069 11.8ZM27.1659 18.409C26.5167 17.5577 25.8203 16.7434 25.0799 15.97C24.3739 16.712 23.6679 17.531 22.9799 18.409C23.6699 18.379 24.3599 18.364 25.0659 18.364C25.7719 18.364 26.4749 18.376 27.1659 18.409ZM21.9249 25.38C21.903 24.7485 22.0702 24.1249 22.4051 23.5891C22.7401 23.0533 23.2274 22.6298 23.8047 22.3729C24.382 22.116 25.0228 22.0374 25.6451 22.1473C26.2673 22.2571 26.8426 22.5503 27.297 22.9892C27.7515 23.4282 28.0645 23.993 28.1958 24.611C28.3271 25.2291 28.2707 25.8723 28.034 26.4581C27.7973 27.0439 27.3909 27.5457 26.8671 27.899C26.3432 28.2523 25.7258 28.441 25.0939 28.441C24.6843 28.4491 24.2772 28.3761 23.8959 28.2263C23.5146 28.0765 23.1667 27.8528 22.8722 27.568C22.5777 27.2833 22.3424 26.9431 22.1798 26.5671C22.0173 26.1911 21.9306 25.7866 21.9249 25.377V25.38Z" fill="#E6E6E6"/>
</g>
<defs>
<clipPath id="clip0_5_323">
<rect width="50" height="50" fill="white"/>
</clipPath>
</defs>
</svg>
