<svg width="50" height="50" viewBox="0 0 50 50" fill="none" xmlns="http://www.w3.org/2000/svg">
<g clip-path="url(#clip0_5_320)">
<path d="M45 0H5C2.23858 0 0 2.19468 0 4.90196V45.098C0 47.8053 2.23858 50 5 50H45C47.7614 50 50 47.8053 50 45.098V4.90196C50 2.19468 47.7614 0 45 0Z" fill="#3BC0DD"/>
<path d="M25.9739 37.1471C25.6739 36.8657 25.3609 36.5833 25.0619 36.2706C24.8229 36.5049 24.5989 36.7245 24.3619 36.9431C21.4029 39.649 18.3529 40.7755 16.5449 39.6804C14.7959 38.6324 14.2449 35.5363 14.9449 31.6412C15.0196 31.219 15.1092 30.7967 15.2139 30.3745C14.8999 30.2765 14.6009 30.1863 14.3019 30.0804C10.5789 28.7324 8.12793 26.5431 8.12793 24.353C8.12793 22.2422 10.4149 20.1931 13.9869 18.8794C14.3869 18.7382 14.8089 18.5981 15.2429 18.4726C15.1429 18.0657 15.0639 17.6745 14.9889 17.2961C14.2409 13.3422 14.7639 10.1833 16.5279 9.11965C18.3659 7.99318 21.4159 9.19808 24.4789 12.0284C24.6579 12.2 24.8379 12.3882 25.0319 12.5755C25.3159 12.2941 25.5849 12.0128 25.8689 11.7628C28.7689 9.11573 31.6529 8.00887 33.4169 9.07259C35.2549 10.1667 35.7939 13.5451 34.9719 17.7216C34.9269 17.9882 34.8719 18.2382 34.8079 18.5059C35.1819 18.6157 35.5549 18.7402 35.8989 18.8657C39.5459 20.1794 41.9079 22.2284 41.8779 24.3863C41.8779 26.5912 39.3519 28.7657 35.4779 30.1108C35.2689 30.1735 35.0599 30.252 34.8499 30.3137C34.9399 30.6265 34.9989 30.9392 35.0589 31.252C35.8359 35.303 35.2379 38.6186 33.4299 39.7137C32.9551 39.994 32.409 40.1367 31.8549 40.1255C30.1979 40.1226 28.0939 39.053 25.9739 37.1471ZM28.9039 31.4069C28.0453 32.7163 27.1017 33.9702 26.0789 35.1608C26.3629 35.4549 26.6469 35.7245 26.9309 35.9745C29.3969 38.1951 31.6689 39.0245 32.7309 38.3833C33.0552 38.1095 33.3202 37.7747 33.5102 37.3986C33.7002 37.0226 33.8113 36.613 33.8369 36.1941C34.0527 34.642 33.9918 33.065 33.6569 31.5333C33.6119 31.252 33.5569 30.9706 33.4779 30.6735C31.9719 31.0191 30.4437 31.2641 28.9039 31.4069ZM16.3779 31.9079C15.7659 35.2412 16.2139 37.7255 17.2779 38.3677C17.6549 38.5221 18.0618 38.5934 18.47 38.5764C18.8782 38.5595 19.2776 38.4548 19.6399 38.2696C21.0493 37.6889 22.3329 36.8501 23.4219 35.798C23.6459 35.6098 23.8549 35.3912 24.0799 35.1726C23.0346 33.9816 22.066 32.7278 21.1799 31.4186C19.6459 31.293 18.1226 31.0637 16.6209 30.7324C16.5279 31.1412 16.4529 31.5314 16.3779 31.9079ZM25.0779 34.0971C25.7359 33.3304 26.3929 32.4863 27.0509 31.548C26.3929 31.5794 25.7059 31.5951 25.0179 31.5951C24.3299 31.5951 23.6879 31.5794 23.0449 31.548C23.7169 32.4696 24.3899 33.3304 25.0769 34.0971H25.0779ZM21.9379 18.8324C21.3699 19.6922 20.8169 20.5971 20.2939 21.5539C19.7709 22.4922 19.2939 23.4461 18.8589 24.3971C19.3079 25.3353 19.7859 26.2892 20.3089 27.2598C20.8319 28.198 21.3849 29.1226 21.9529 29.9961C22.9389 30.0588 23.9709 30.0941 25.0169 30.0941C26.0629 30.0941 27.1089 30.0628 28.1109 29.9853C28.6489 29.1255 29.2019 28.202 29.7259 27.2481C30.2499 26.2941 30.7419 25.3245 31.1759 24.3863C30.7419 23.4637 30.2489 22.5098 29.7259 21.5549C29.2029 20.6 28.6499 19.6922 28.0969 18.8333C27.0969 18.7549 26.0639 18.7079 25.0179 18.7079C23.9719 18.7079 22.9399 18.7539 21.9379 18.8324ZM17.0059 29.2951C18.0314 29.5248 19.0694 29.6973 20.1149 29.8118C19.7559 29.2177 19.3979 28.6226 19.0539 27.9971C18.7249 27.3873 18.3959 26.7775 18.0969 26.1677C17.6639 27.2304 17.3049 28.2804 17.0059 29.2951ZM30.9809 27.9814C30.6369 28.6069 30.2929 29.201 29.9499 29.7804C31.011 29.6501 32.064 29.4622 33.1039 29.2177C32.7792 28.1619 32.4 27.123 31.9679 26.1049C31.6539 26.7304 31.3249 27.3559 30.9809 27.9814ZM14.4499 20.3177C11.4009 21.4441 9.56293 23.0843 9.56293 24.3686C9.62106 24.7818 9.76184 25.1797 9.97721 25.5394C10.1925 25.8991 10.4783 26.2135 10.8179 26.4647C11.9845 27.4265 13.3223 28.1687 14.7639 28.6539C15.0329 28.752 15.3169 28.8265 15.6009 28.9206C16.06 27.3822 16.6141 25.8726 17.2599 24.4C16.6128 22.9527 16.0636 21.4651 15.6159 19.9471C15.2126 20.053 14.8239 20.1765 14.4499 20.3177ZM32.7899 24.3686C33.4532 25.8225 34.021 27.3164 34.4899 28.8412C34.6849 28.7784 34.8789 28.7157 35.0579 28.653C38.3909 27.4961 40.4579 25.7284 40.4689 24.352C40.4689 23.0696 38.5559 21.4108 35.4319 20.2853C35.1179 20.1765 34.7749 20.0667 34.4319 19.9569C33.9791 21.4596 33.4307 22.9331 32.7899 24.3686ZM30.9669 20.7716C31.3109 21.3971 31.6399 22.0079 31.9379 22.6177C32.3532 21.621 32.7124 20.6028 33.0139 19.5677C31.9987 19.3258 30.9708 19.138 29.9349 19.0049C30.2939 19.5824 30.6369 20.1618 30.9659 20.7716H30.9669ZM17.0209 19.5549C17.3209 20.5559 17.6789 21.5726 18.0969 22.6196C18.3969 22.0098 18.7249 21.4 19.0539 20.7902C19.3829 20.1804 19.7259 19.5863 20.0849 19.0069C19.0089 19.1451 17.9929 19.3324 17.0209 19.5549ZM26.8109 12.9079C26.5569 13.1422 26.3029 13.3922 26.0479 13.6431C27.0858 14.8191 28.0398 16.0639 28.9029 17.3686C30.424 17.5126 31.9325 17.7636 33.4169 18.1196C33.4769 17.8853 33.5169 17.65 33.5669 17.4157C34.2669 13.8186 33.8359 11.0657 32.6999 10.3784C32.4506 10.2412 32.1677 10.1734 31.8819 10.1824C30.6609 10.1765 28.7869 11.1088 26.8109 12.9049V12.9079ZM17.2449 10.4177C16.1839 11.0588 15.7649 13.6235 16.3929 17.002C16.4679 17.3618 16.5429 17.7206 16.6319 18.0961C18.1183 17.7531 19.6263 17.5075 21.1459 17.3608C22.0121 16.0544 22.9712 14.8095 24.0159 13.6353C23.8519 13.4628 23.6719 13.3069 23.5079 13.15C21.4279 11.2216 19.4279 10.2039 18.1219 10.2039C17.815 10.1937 17.5112 10.2677 17.2449 10.4177ZM27.0199 17.2363C26.4035 16.3619 25.7385 15.5214 25.0279 14.7186C24.3559 15.4843 23.6829 16.3294 23.0279 17.2363C23.6859 17.2049 24.3429 17.1892 25.0159 17.1892C25.6889 17.1892 26.3629 17.202 27.0209 17.2363H27.0199ZM22.0279 24.4314C22.0139 24.0294 22.0809 23.6287 22.2252 23.2522C22.3694 22.8756 22.588 22.5307 22.8685 22.2372C23.1489 21.9436 23.4857 21.7073 23.8595 21.5416C24.2334 21.3759 24.6369 21.2841 25.0469 21.2716C25.8742 21.2992 26.6567 21.6474 27.2226 22.2397C27.7885 22.832 28.0918 23.6202 28.0659 24.4314C28.0926 25.2432 27.7896 26.0323 27.2233 26.6253C26.6571 27.2183 25.874 27.5668 25.0459 27.5941C24.6356 27.5816 24.2319 27.4898 23.858 27.3239C23.484 27.158 23.1471 26.9213 22.8667 26.6274C22.5863 26.3336 22.3679 25.9883 22.2239 25.6114C22.08 25.2346 22.0133 24.8335 22.0279 24.4314Z" fill="#E6E6E6"/>
</g>
<defs>
<clipPath id="clip0_5_320">
<rect width="50" height="50" fill="white"/>
</clipPath>
</defs>
</svg>
