<svg width="50" height="50" viewBox="0 0 50 50" fill="none" xmlns="http://www.w3.org/2000/svg">
<g clip-path="url(#clip0_5_329)">
<path d="M45 0H5C2.23858 0 0 2.23858 0 5V45C0 47.7614 2.23858 50 5 50H45C47.7614 50 50 47.7614 50 45V5C50 2.23858 47.7614 0 45 0Z" fill="#AB47BC"/>
<path fill-rule="evenodd" clip-rule="evenodd" d="M31.5584 31.3485C32.8131 31.2198 33.765 30.1474 33.7217 28.8605C33.6785 27.5737 32.5968 26.5442 31.2988 26.5442H31.2123C29.871 26.5871 28.8326 27.7024 28.8759 29.0321C28.9192 29.6756 29.1788 30.2332 29.5682 30.6193C28.0971 33.4932 25.8472 35.5951 22.4725 37.3538C20.1793 38.5549 17.7997 38.9839 15.42 38.6836C13.473 38.4262 11.9587 37.5683 11.0069 36.1528C9.62233 34.0509 9.49253 31.7774 10.6607 29.504C11.4828 27.8739 12.7808 26.6729 13.6028 26.0723C13.4298 25.5147 13.1702 24.571 13.0404 23.8847C6.76674 28.3887 7.41574 34.4798 9.31946 37.3538C10.7473 39.4986 13.6461 40.8284 16.8478 40.8284C17.7132 40.8284 18.5785 40.7426 19.4438 40.5281C24.9819 39.4557 29.1788 36.1957 31.5584 31.3485Z" fill="white"/>
<path fill-rule="evenodd" clip-rule="evenodd" d="M39.1734 26.0295C35.8851 22.2118 31.0393 20.1099 25.5012 20.1099H24.8089C24.4195 19.3378 23.5975 18.8231 22.6889 18.8231H22.6023C21.2611 18.8659 20.2227 19.9812 20.266 21.311C20.3092 22.5978 21.3909 23.6273 22.6889 23.6273H22.7754C23.7273 23.5844 24.5493 22.9839 24.8955 22.1689H25.6743C28.9625 22.1689 32.0777 23.1126 34.89 24.9571C37.0533 26.3726 38.6109 28.2171 39.4763 30.4477C40.2118 32.2493 40.1685 34.008 39.3897 35.5094C38.1783 37.7828 36.1447 39.0268 33.4622 39.0268C31.7316 39.0268 30.0874 38.512 29.2221 38.126C28.7462 38.5549 27.8809 39.2413 27.2751 39.6702C29.1356 40.5281 31.0393 41 32.8565 41C37.0101 41 40.082 38.7265 41.2502 36.4531C42.5049 33.9651 42.4184 29.6756 39.1734 26.0295Z" fill="white"/>
<path fill-rule="evenodd" clip-rule="evenodd" d="M17.194 32.0777C17.2373 33.3646 18.319 34.3941 19.617 34.3941H19.7035C21.0448 34.3512 22.0831 33.2359 22.0399 31.9061C21.9966 30.6193 20.915 29.5898 19.617 29.5898H19.5304C19.4439 29.5898 19.3141 29.5898 19.2276 29.6327C17.4536 26.7158 16.7181 23.5415 16.9777 20.1099C17.1508 17.5362 18.0161 15.3056 19.5304 13.4611C20.7852 11.874 23.2081 11.1019 24.8522 11.059C29.4384 10.9732 31.3854 16.6354 31.5152 18.9088C32.0777 19.0375 33.0296 19.3378 33.6786 19.5523C33.1594 12.6032 28.8327 9 24.6791 9C20.7852 9 17.194 11.7882 15.7662 15.9062C13.776 21.3968 15.074 26.6729 17.4969 30.8338C17.2806 31.134 17.1508 31.6059 17.194 32.0777Z" fill="white"/>
<path fill-rule="evenodd" clip-rule="evenodd" d="M31.5584 31.3485C32.8131 31.2198 33.765 30.1474 33.7217 28.8605C33.6785 27.5737 32.5968 26.5442 31.2988 26.5442H31.2123C29.871 26.5871 28.8326 27.7024 28.8759 29.0321C28.9192 29.6756 29.1788 30.2332 29.5682 30.6193C28.0971 33.4932 25.8472 35.5951 22.4725 37.3538C20.1793 38.5549 17.7997 38.9839 15.42 38.6836C13.473 38.4262 11.9587 37.5683 11.0069 36.1528C9.62233 34.0509 9.49253 31.7774 10.6607 29.504C11.4828 27.8739 12.7808 26.6729 13.6028 26.0723C13.4298 25.5147 13.1702 24.571 13.0404 23.8847C6.76674 28.3887 7.41574 34.4798 9.31946 37.3538C10.7473 39.4986 13.6461 40.8284 16.8478 40.8284C17.7132 40.8284 18.5785 40.7426 19.4438 40.5281C24.9819 39.4557 29.1788 36.1957 31.5584 31.3485Z" stroke="white" stroke-width="0.435465" stroke-linejoin="round"/>
<path fill-rule="evenodd" clip-rule="evenodd" d="M39.1734 26.0295C35.8851 22.2118 31.0393 20.1099 25.5012 20.1099H24.8089C24.4195 19.3378 23.5975 18.8231 22.6889 18.8231H22.6023C21.2611 18.8659 20.2227 19.9812 20.266 21.311C20.3092 22.5978 21.3909 23.6273 22.6889 23.6273H22.7754C23.7273 23.5844 24.5493 22.9839 24.8955 22.1689H25.6743C28.9625 22.1689 32.0777 23.1126 34.89 24.9571C37.0533 26.3726 38.6109 28.2171 39.4763 30.4477C40.2118 32.2493 40.1685 34.008 39.3897 35.5094C38.1783 37.7828 36.1447 39.0268 33.4622 39.0268C31.7316 39.0268 30.0874 38.512 29.2221 38.126C28.7462 38.5549 27.8809 39.2413 27.2751 39.6702C29.1356 40.5281 31.0393 41 32.8565 41C37.0101 41 40.082 38.7265 41.2502 36.4531C42.5049 33.9651 42.4184 29.6756 39.1734 26.0295Z" stroke="white" stroke-width="0.435465" stroke-linejoin="round"/>
<path fill-rule="evenodd" clip-rule="evenodd" d="M17.194 32.0777C17.2373 33.3646 18.319 34.3941 19.617 34.3941H19.7035C21.0448 34.3512 22.0831 33.2359 22.0399 31.9061C21.9966 30.6193 20.915 29.5898 19.617 29.5898H19.5304C19.4439 29.5898 19.3141 29.5898 19.2276 29.6327C17.4536 26.7158 16.7181 23.5415 16.9777 20.1099C17.1508 17.5362 18.0161 15.3056 19.5304 13.4611C20.7852 11.874 23.2081 11.1019 24.8522 11.059C29.4384 10.9732 31.3854 16.6354 31.5152 18.9088C32.0777 19.0375 33.0296 19.3378 33.6786 19.5523C33.1594 12.6032 28.8327 9 24.6791 9C20.7852 9 17.194 11.7882 15.7662 15.9062C13.776 21.3968 15.074 26.6729 17.4969 30.8338C17.2806 31.134 17.1508 31.6059 17.194 32.0777Z" stroke="white" stroke-width="0.435465" stroke-linejoin="round"/>
</g>
<defs>
<clipPath id="clip0_5_329">
<rect width="50" height="50" fill="white"/>
</clipPath>
</defs>
</svg>
