<svg width="50" height="50" viewBox="0 0 50 50" fill="none" xmlns="http://www.w3.org/2000/svg">
<g clip-path="url(#clip0_5_371)">
<path d="M45 0H5C2.23858 0 0 2.23858 0 5V45C0 47.7614 2.23858 50 5 50H45C47.7614 50 50 47.7614 50 45V5C50 2.23858 47.7614 0 45 0Z" fill="#FB2D26"/>
<path d="M40.4025 33.8737C41.1256 35.0969 41.1957 36.383 40.5948 37.3997C39.9947 38.4173 38.8208 39 37.3738 39H34.6468C34.6791 38.5048 34.7007 38.0052 34.7007 37.5021C34.7007 36.9386 34.6737 36.3822 34.6342 35.8274L36.4279 35.8257C36.869 35.8257 37.2256 35.4766 37.2256 35.0461C37.2256 34.9114 37.1905 34.7863 37.1295 34.6743L25.697 15.3179C25.5614 15.0825 25.3018 14.9233 25.0045 14.9233C24.7153 14.9233 24.462 15.0737 24.3218 15.2995L22.5066 18.3732C28.0234 22.4242 31.7321 28.7001 32.2396 35.8257C32.2791 36.3795 32.3061 36.936 32.3061 37.5003C32.3061 38.0034 32.2845 38.5022 32.2531 38.9982H23.3473C23.3958 38.5048 23.4236 38.0061 23.4236 37.5003C23.4236 36.9343 23.3895 36.376 23.3266 35.8257C22.8865 31.9042 20.9158 28.4289 18.0137 25.9764L16.7634 28.0921C18.9559 30.0799 20.4524 32.787 20.8592 35.8257C20.9329 36.3743 20.9742 36.9325 20.9742 37.5003C20.9742 38.0061 20.9401 38.5065 20.8817 38.9982H12.6262C11.1792 38.9982 10.0053 38.4147 9.40525 37.3971C8.80434 36.3804 8.8744 35.0951 9.59746 33.8711L11.2924 31.0415C12.2643 31.5498 13.1373 32.2122 13.8819 32.9961L12.8714 34.6725C12.8113 34.7836 12.7753 34.9096 12.7753 35.0444C12.7753 35.4748 13.1319 35.8231 13.5729 35.8231L17.5772 35.8248C17.2412 33.9551 16.3556 32.2682 15.0873 30.9321C14.34 30.1473 13.467 29.4832 12.4951 28.9749L16.9664 21.4075C17.9185 21.9263 18.8194 22.5213 19.6619 23.188C23.5153 26.2337 26.1174 30.7318 26.5889 35.8239H28.9854C28.4967 29.8708 25.4258 24.6211 20.8682 21.1459C20.014 20.4949 19.1095 19.9052 18.1592 19.3855L21.9757 12.9266C22.6979 11.7026 23.8027 11 25.0045 11C26.2054 11 27.3093 11.7026 28.0324 12.9266L40.4025 33.8737Z" fill="white"/>
</g>
<defs>
<clipPath id="clip0_5_371">
<rect width="50" height="50" fill="white"/>
</clipPath>
</defs>
</svg>
