<svg width="50" height="50" viewBox="0 0 50 50" fill="none" xmlns="http://www.w3.org/2000/svg">
<g clip-path="url(#clip0_5_377)">
<path d="M45 0H5C2.23858 0 0 2.23858 0 5V45C0 47.7614 2.23858 50 5 50H45C47.7614 50 50 47.7614 50 45V5C50 2.23858 47.7614 0 45 0Z" fill="#010101"/>
<path d="M20.9479 9.50512C25.0881 8.44223 29.6641 9.0616 33.3155 11.3175C37.9142 14.0705 40.9165 19.278 40.9929 24.6386C41.161 30.0526 38.342 35.4208 33.8121 38.3649C28.7702 41.7601 21.7957 41.8902 16.6469 38.6632C11.3989 35.5278 8.33552 29.2038 9.12247 23.132C9.75634 16.7162 14.7067 11.0575 20.9479 9.50525V9.50512Z" fill="white"/>
<path d="M20.3135 12.1282C28.136 8.99288 37.7308 14.7817 38.5404 23.1781C39.801 30.7333 33.5369 38.4109 25.89 38.6327C18.6176 39.3592 11.5896 33.1879 11.3834 25.8776C10.841 19.9588 14.737 14.0859 20.3135 12.1282Z" fill="black"/>
<path d="M21.1006 24.1874C24.6071 21.3197 28.037 18.3526 31.6198 15.5691C29.7405 18.4598 27.8079 21.312 25.9286 24.2026C24.3167 24.2103 22.7049 24.2103 21.1006 24.1873V24.1874ZM24.0647 25.7855C25.6841 25.7855 27.296 25.7855 28.9079 25.8085C25.3786 28.6608 21.9639 31.6507 18.3735 34.4267C20.2527 31.536 22.1854 28.6762 24.0647 25.7855Z" fill="white"/>
</g>
<defs>
<clipPath id="clip0_5_377">
<rect width="50" height="50" fill="white"/>
</clipPath>
</defs>
</svg>
