<svg width="50" height="50" viewBox="0 0 50 50" fill="none" xmlns="http://www.w3.org/2000/svg">
<g clip-path="url(#clip0_106_206)">
<path d="M45 0H5C2.23858 0 0 2.23858 0 5V45C0 47.7614 2.23858 50 5 50H45C47.7614 50 50 47.7614 50 45V5C50 2.23858 47.7614 0 45 0Z" fill="#6772E5"/>
<path d="M7.36719 6.616H42.8302V41.816H7.36719V6.616Z" fill="#6772E5"/>
<path fill-rule="evenodd" clip-rule="evenodd" d="M22.8799 18.5153C22.8799 17.1453 24.0199 16.6153 25.8618 16.6153C28.9104 16.6812 31.9018 17.4552 34.5997 18.8763V10.6064C31.8178 9.51314 28.8507 8.96815 25.8618 9.00144C18.7619 9.00144 14 12.7204 14 18.9303C14 28.6462 27.3418 27.0682 27.3418 31.2561C27.3418 32.8941 25.9418 33.4021 23.9719 33.4021C21.0669 33.4021 17.315 32.2001 14.372 30.6001V38.978C17.402 40.2964 20.6685 40.9844 23.9729 41C31.2698 41 36.2997 37.395 36.2997 31.0771C36.2997 20.5913 22.8799 22.4643 22.8799 18.5173V18.5153Z" fill="white"/>
</g>
<defs>
<clipPath id="clip0_106_206">
<rect width="50" height="50" fill="white"/>
</clipPath>
</defs>
</svg>
