<svg width="50" height="50" viewBox="0 0 50 50" fill="none" xmlns="http://www.w3.org/2000/svg">
<g clip-path="url(#clip0_5_425)">
<path d="M45 0H5C2.23858 0 0 2.23858 0 5V45C0 47.7614 2.23858 50 5 50H45C47.7614 50 50 47.7614 50 45V5C50 2.23858 47.7614 0 45 0Z" fill="#403E42"/>
<path d="M30.0993 28.2973C30.1382 29.384 30.7147 29.3759 31.4004 29.3505C32.3239 29.3335 32.8308 29.0481 33.2942 29.2731C33.2869 29.2471 33.1422 28.8108 32.5026 28.8867C32.5768 28.7253 32.6084 28.5068 32.5859 28.2067C32.5017 27.1208 31.8751 26.2582 31.1877 26.2827C30.502 26.3063 30.0613 27.2081 30.0993 28.2973ZM31.1231 26.9724C31.1692 26.9715 31.215 26.9797 31.2579 26.9967C31.3007 27.0137 31.3399 27.039 31.373 27.0713C31.4062 27.1036 31.4326 27.1422 31.4509 27.1848C31.4692 27.2274 31.479 27.2733 31.4796 27.3197C31.4813 27.4134 31.4461 27.504 31.3817 27.5715C31.3173 27.6391 31.229 27.6781 31.1361 27.6801C31.0428 27.6816 30.9527 27.6456 30.8857 27.5802C30.8187 27.5148 30.7802 27.4252 30.7786 27.3312C30.7779 27.2848 30.7861 27.2387 30.803 27.1956C30.8199 27.1525 30.8451 27.1131 30.8771 27.0798C30.9091 27.0465 30.9473 27.0198 30.9895 27.0014C31.0317 26.983 31.0771 26.9731 31.1231 26.9724ZM20.6853 29.5463C20.7565 29.5479 20.8309 29.5463 20.9068 29.5446C20.9732 29.5446 21.0396 29.543 21.109 29.5406C21.7972 29.534 22.3673 29.5992 22.3584 28.5116C22.3471 27.4242 21.8683 26.5435 21.1803 26.5509C20.4937 26.5574 19.829 27.4493 19.8686 28.5361C19.8807 28.8198 19.922 29.0236 19.9882 29.1712C19.3899 29.3237 19.2243 29.6963 19.2144 29.7199C19.5912 29.5153 20.0174 29.5446 20.6853 29.5463ZM21.2764 27.235C21.4705 27.2284 21.6313 27.3833 21.6379 27.579C21.6401 27.6728 21.6053 27.7637 21.5412 27.8317C21.4771 27.8997 21.3888 27.9393 21.2958 27.9419C21.2497 27.9433 21.2038 27.9355 21.1607 27.9189C21.1175 27.9023 21.0781 27.8773 21.0446 27.8454C21.0111 27.8134 20.9842 27.7751 20.9654 27.7326C20.9466 27.6901 20.9364 27.6443 20.9352 27.5978C20.9338 27.5513 20.9416 27.505 20.958 27.4616C20.9744 27.4182 20.9992 27.3784 21.0309 27.3447C21.0626 27.311 21.1007 27.2839 21.1428 27.2651C21.1849 27.2462 21.2303 27.2359 21.2764 27.2348V27.235ZM22.8913 15.6456H24.8206V14.8434H25.2548V18.5496H24.5991V20.6231H27.9766V18.5496H27.3201V14.8434H27.7551V15.6456H29.6861V12.8989H22.8913V15.6456Z" fill="white"/>
<path d="M40.9884 20.9415C40.9761 20.7067 40.954 20.4725 40.9221 20.2395C40.9058 20.1221 40.8888 20.0048 40.8647 19.8898C40.842 19.7708 40.8194 19.6606 40.7813 19.5311L40.7571 19.4397L40.6932 19.3883C40.3253 19.0981 39.9298 18.878 39.528 18.6841C39.1957 18.5259 38.8584 18.3881 38.518 18.2617C37.5663 15.6005 35.9328 13.2411 33.7827 11.5984C31.5614 9.89928 28.9487 9 26.2285 9C23.5068 9 20.8948 9.89928 18.6727 11.5984C16.9804 12.8914 15.6097 14.6295 14.6385 16.6083H14.6338C14.3692 17.1455 14.1351 17.6975 13.9328 18.2617C13.5915 18.3881 13.2544 18.5259 12.922 18.684C12.5192 18.8781 12.1247 19.0981 11.7567 19.3883L11.692 19.4397L11.6678 19.5311C11.6341 19.6492 11.606 19.7689 11.5837 19.8898C11.561 20.0048 11.5425 20.1221 11.527 20.2395C11.5036 20.4066 11.4883 20.5763 11.4745 20.7458H11.4802C11.4743 20.8112 11.4697 20.8768 11.4664 20.9424C11.4426 21.4123 11.4562 21.8834 11.5069 22.3511C11.5563 22.8201 11.6429 23.2844 11.7656 23.7396C11.83 23.9687 11.9053 24.1945 11.9913 24.4163C12.0341 24.5279 12.081 24.6388 12.1335 24.7505C12.1594 24.806 12.1878 24.8606 12.2161 24.9169L12.2621 24.9992C12.2799 25.0302 12.2921 25.0523 12.3188 25.0921L12.3648 25.1656L12.4392 25.2039C12.5176 25.2446 12.5832 25.2748 12.6544 25.3091L12.8613 25.4036C12.8993 25.4191 12.9366 25.4353 12.9761 25.4517C12.0324 26.3306 11.0071 27.4728 10.1201 28.8849L9 30.6647L10.5728 29.2729C10.6004 29.2493 11.9183 28.0989 14.1178 26.7937L14.1486 27.0488L14.2286 27.6921L14.6313 30.9915C14.6401 31.0543 14.6725 31.1107 14.7243 31.1465L15.5499 31.731C15.5644 31.7775 15.5781 31.8241 15.592 31.8722C15.6114 31.9381 15.6291 32.0034 15.6494 32.0693L15.8378 32.6425C16.2509 33.9381 16.8364 35.1064 17.5487 36.1328C17.5148 36.1434 17.48 36.1531 17.446 36.163C17.0168 35.9625 15.5167 35.2613 15.0129 35.0321L13.9593 34.5553L14.5827 35.536C14.6281 35.6069 15.7035 37.2979 16.5809 38.4376C17.4033 39.5016 18.528 40.5876 20.6498 40.5876C20.9164 40.5864 21.1829 40.5711 21.4479 40.5419C22.0811 40.4676 22.5566 40.4107 22.918 40.3633C25.145 41.19 27.6016 41.2389 29.9329 40.3494C30.5436 40.1157 31.1307 39.8233 31.686 39.4764C31.6973 39.4747 31.7078 39.4713 31.7175 39.469C32.5844 39.2586 33.5684 39.0213 34.0545 38.8844C34.132 38.8632 34.2299 38.8395 34.331 38.8151C35.0078 38.6594 36.139 38.3936 36.7414 37.1772C37.3487 35.9494 38.3402 34.0693 38.3499 34.0506L38.814 33.1757L37.9124 33.5712C37.8631 33.5924 36.7197 34.0953 36.1253 34.4093C36.1051 34.4215 36.0792 34.4322 36.0558 34.4436C36.5393 33.4497 36.7803 32.658 36.8668 32.354L37.1928 30.9981L38.1315 28.8808C38.1315 28.8808 38.395 26.5663 38.4008 26.5678L38.4929 25.6824C38.5754 25.6474 39.0768 25.6124 39.1746 25.5733C39.3145 25.5177 39.4543 25.4631 39.5943 25.402L39.8004 25.3074C39.8733 25.2732 39.938 25.243 40.0164 25.2021L40.0907 25.1639L40.1377 25.0906C40.1635 25.0506 40.178 25.0278 40.1935 24.9976L40.2388 24.9152C40.2703 24.859 40.2969 24.8043 40.322 24.749C40.3733 24.639 40.4213 24.5275 40.466 24.4146C40.5507 24.1926 40.6254 23.9668 40.69 23.7379C40.8128 23.2789 40.9018 22.8167 40.9487 22.3495C41.0005 21.8831 41.0118 21.412 40.9884 20.9415ZM19.5647 26.6543C19.5848 26.6403 20.4283 26.0827 21.8054 25.4036C23.3062 25.2889 24.8108 25.2315 26.316 25.2316C26.7105 25.2316 27.0978 25.2373 27.4802 25.2439C27.2134 25.4607 26.932 25.6653 26.6393 25.8423L25.6666 26.4357C25.0528 26.5107 24.5208 26.6648 24.4916 26.673C24.4737 26.678 24.4566 26.6854 24.4407 26.695C24.3929 26.7228 24.3566 26.7683 24.3404 26.8223L23.3458 30.125L18.0373 31.3145L16.3642 30.1331L15.8774 26.1601C16.8267 25.9833 18.0978 25.7802 19.6228 25.6082C19.4557 25.8076 19.2982 26.0149 19.1507 26.2294L18.2426 27.5438L19.5647 26.6543ZM26.7291 40.4766C25.8533 40.5354 24.9639 40.4319 24.093 40.1913C24.1658 40.1767 24.2184 40.1684 24.2831 40.1612C24.3542 40.1513 25.9173 39.9442 26.6199 38.891L26.6862 38.8925L26.8609 38.8909C26.9766 38.8909 27.0817 38.8811 27.194 38.8763C27.4609 38.8542 27.7189 38.8151 27.9752 38.763C28.0027 38.7899 28.0286 38.8168 28.0569 38.8461C28.5849 39.3736 29.2407 39.676 29.9611 39.729C28.7491 40.2255 27.6081 40.418 26.7291 40.4766ZM26.8084 38.5445C26.9401 38.2484 27.0396 38.0177 27.1148 37.844C27.3019 38.0546 27.4928 38.2617 27.6874 38.4653C27.515 38.4914 27.3452 38.5135 27.1778 38.5273C27.0679 38.5322 26.953 38.5445 26.8479 38.5445H26.8083H26.8084ZM24.2038 31.727L24.6784 31.6194C24.7166 31.6108 24.7519 31.592 24.7806 31.5651C24.8094 31.5381 24.8304 31.504 24.8417 31.4661L25.8332 28.178C26.0046 28.1551 26.155 28.1429 26.2851 28.1429C26.4112 28.1429 26.5642 28.1553 26.7348 28.178L27.7552 31.5639C27.7812 31.6503 27.8547 31.7132 27.942 31.7229L28.3204 31.7661L28.4175 31.7767L34.9367 32.5244C34.9908 32.5308 35.0442 32.5154 35.0886 32.4844L35.7437 32.0229L36.3493 31.5957L36.5733 31.4368C36.5368 31.5941 36.4965 31.7506 36.4544 31.9048C36.3925 32.103 36.3275 32.3003 36.2595 32.4966C35.9919 33.2647 35.6919 33.9617 35.3652 34.5911C35.2699 34.5974 35.1744 34.6006 35.0789 34.6008C34.7619 34.6008 34.4401 34.5748 34.0834 34.5413C33.4642 34.4834 32.4833 34.3701 32.1743 34.3351C31.905 34.119 30.9906 33.3877 30.2312 32.7836C30.2022 32.7608 30.1763 32.7363 30.1496 32.7151C30.0162 32.6009 29.8642 32.4721 29.5561 32.4721C29.2747 32.4721 28.8655 32.5749 27.8766 32.8756C28.3917 32.4877 28.3957 31.9879 28.3957 31.9879C28.3957 31.9879 27.6631 32.676 26.4808 32.8276C25.3018 32.9809 24.3744 32.2495 24.3744 32.2495C24.4132 32.3768 24.4682 32.6645 24.7359 32.9083C24.4212 32.8715 24.0817 32.8455 23.725 32.8455C23.5973 32.8455 23.4663 32.8488 23.3409 32.8553C22.6147 32.8945 21.5928 34 20.8754 35.1161C20.5229 35.2287 19.4208 35.5817 18.1464 35.9592C17.3936 34.909 16.8834 33.8434 16.5946 33.1578C16.4264 32.7584 16.3326 32.4868 16.3116 32.4225V32.4208C16.2882 32.3556 16.263 32.2863 16.2412 32.2169L16.5469 32.4322V32.4338L17.3029 32.9686L17.5553 33.1456C17.5933 33.1725 17.6394 33.1862 17.683 33.1862C17.6991 33.1862 17.7154 33.1847 17.7324 33.1814L24.2038 31.727ZM28.2258 26.8223C28.2148 26.7865 28.1951 26.7541 28.1686 26.7279C28.142 26.7017 28.1094 26.6825 28.0738 26.6721C28.0407 26.6616 27.3848 26.4733 26.6886 26.4138L26.8164 26.4039C26.9264 26.3958 28.7546 26.1708 30.9388 25.411C33.3574 25.5976 35.332 25.897 36.6824 26.1447L36.2045 29.5249L34.5177 30.7144L29.2155 30.107L28.2258 26.8223ZM39.866 22.2688C39.8069 22.7041 39.6113 23.552 39.6113 23.552L39.4584 23.5774C39.3783 23.5553 38.6328 23.3604 37.3487 23.1208C37.39 23.1118 37.4296 23.1028 37.4684 23.0939C37.7348 23.0281 37.9964 22.9436 38.2512 22.8412C38.3773 22.7866 38.5034 22.7286 38.6223 22.6601C38.7404 22.5908 38.856 22.5142 38.9465 22.4106C37.6608 22.8346 35.0038 22.6422 32.6418 22.396C30.4835 22.1709 28.3172 22.0259 26.1404 22.0209C23.9644 22.0259 21.8006 22.1718 19.6399 22.396C17.2779 22.6422 14.6216 22.8346 13.3359 22.4106C13.4265 22.5134 13.5428 22.5908 13.6617 22.6601C13.7798 22.7286 13.9052 22.7857 14.0313 22.8412C14.2864 22.9434 14.5482 23.0278 14.8148 23.0939C14.9086 23.1159 15.0041 23.1371 15.0995 23.1542C13.9278 23.3784 13.2495 23.5562 13.1733 23.5774C13.1733 23.5774 12.9032 23.6214 12.8442 23.4127C12.727 22.9952 12.6485 22.7034 12.5895 22.2688C12.5331 21.8353 12.5061 21.3984 12.5087 20.9612C12.5094 20.8893 12.5078 20.7458 12.5078 20.7458C12.5118 20.5991 12.5184 20.4523 12.5321 20.3055C12.5401 20.1971 12.9356 19.85 13.2753 19.6525C13.6424 19.4373 14.0281 19.2433 14.421 19.0631C14.8099 18.8772 16.0706 18.6073 16.8307 18.4688C17.5909 18.3285 20.3093 17.965 20.5132 17.8882C20.7162 17.8101 21.8911 16.8968 22.0965 16.8211C21.6648 16.8928 15.6987 17.8116 15.4302 17.8972C17.3669 12.7911 21.1682 10.3044 26.2277 10.3044C31.2857 10.3044 35.0878 12.6524 37.026 17.7594C34.4676 17.0738 30.9242 16.7542 30.4924 16.6816C30.6978 16.7575 31.8598 17.5817 32.0757 17.6094C33.8449 17.841 36.6347 18.4647 36.8368 18.5454C37.2379 18.7092 37.6398 18.878 38.0296 19.0631C38.4235 19.2433 38.8083 19.4373 39.1755 19.6525C39.515 19.8507 39.9097 20.1971 39.9192 20.3056C39.938 20.5241 39.9461 20.7418 39.9484 20.9604C39.9517 21.3973 39.9218 21.8359 39.866 22.2688Z" fill="white"/>
</g>
<defs>
<clipPath id="clip0_5_425">
<rect width="50" height="50" fill="white"/>
</clipPath>
</defs>
</svg>
