<svg width="50" height="50" viewBox="0 0 50 50" fill="none" xmlns="http://www.w3.org/2000/svg">
<g clip-path="url(#clip0_5_438)">
<path d="M45 0H5C2.23858 0 0 2.23858 0 5V45C0 47.7614 2.23858 50 5 50H45C47.7614 50 50 47.7614 50 45V5C50 2.23858 47.7614 0 45 0Z" fill="white"/>
<path d="M7 9L25 41L43 9.15619V9.00011H36.0024L25.1033 28.2793L14.2559 9.00011L7 9Z" fill="#41B883"/>
<path d="M14.2573 9L25.1044 28.2828L36.0022 9H29.4384L25.1474 16.5887L20.876 9H14.2573Z" fill="#35495E"/>
</g>
<defs>
<clipPath id="clip0_5_438">
<rect width="50" height="50" fill="white"/>
</clipPath>
</defs>
</svg>
