<svg width="50" height="50" viewBox="0 0 50 50" fill="none" xmlns="http://www.w3.org/2000/svg">
<g clip-path="url(#clip0_5_442)">
<path d="M45 0H5C2.23858 0 0 2.23858 0 5V45C0 47.7614 2.23858 50 5 50H45C47.7614 50 50 47.7614 50 45V5C50 2.23858 47.7614 0 45 0Z" fill="#2B3A42"/>
<path d="M25 9L39 16.9991V33.0009L25 41L11 33.0009V16.9991L25 9Z" fill="white"/>
<path d="M36.5002 32.4489L25.4629 38.756V33.8448L32.3399 30.0224L36.5002 32.4489ZM37.2562 31.7582V18.5701L33.219 20.9271V29.4049L37.2562 31.7582ZM13.4562 32.4489L24.4934 38.756V33.8448L17.6128 30.0224L13.4562 32.4489ZM12.7002 31.7582V18.5701L16.7374 20.9271V29.4049L12.7002 31.7582ZM13.1741 17.715L24.4934 11.2471V15.9939L17.2402 20.0245L17.1823 20.0574L13.1741 17.715ZM36.7823 17.715L25.4629 11.2471V15.9939L32.7162 20.0209L32.7741 20.0537L36.7823 17.715Z" fill="#8ED6FB"/>
<path d="M24.4935 32.7274L17.707 28.9563V21.4907L24.4935 25.4482V32.7274ZM25.463 32.7274L32.2496 28.9599V21.4907L25.463 25.4482V32.7274ZM18.1664 20.6283L24.9783 16.8462L31.7902 20.6283L24.9783 24.6004L18.1664 20.6283Z" fill="#1C78C0"/>
</g>
<defs>
<clipPath id="clip0_5_442">
<rect width="50" height="50" fill="white"/>
</clipPath>
</defs>
</svg>
